<svg width="24" height="24" viewBox="0 0 24 24" fill="none" xmlns="http://www.w3.org/2000/svg">
<path d="M10.5703 9.86719C11.1117 9.86719 11.5312 10.2867 11.5312 10.8047C11.5312 11.3227 11.1117 11.7422 10.5703 11.7422C10.0758 11.7422 9.65625 11.3227 9.65625 10.8047C9.65625 10.2867 10.0758 9.86719 10.5703 9.86719ZM17.1328 9.86719C17.6742 9.86719 18.0938 10.2867 18.0938 10.8047C18.0938 11.3227 17.6742 11.7422 17.1328 11.7422C16.6383 11.7422 16.2188 11.3227 16.2188 10.8047C16.2188 10.2867 16.6383 9.86719 17.1328 9.86719Z" fill="#6D7274"/>
<path d="M3.04688 8.08595C4.17422 6.53907 5.74922 5.50548 7.47656 5.03907V5.04142C7.87734 4.5961 8.32969 4.18595 8.83594 3.82032C12.6727 1.03126 18.0586 1.88204 20.8594 5.71876C23.1164 8.83595 23.0203 13.0289 20.7188 16.0078L20.7 19.1156C20.7 19.1906 20.6883 19.2656 20.6648 19.3359C20.5406 19.732 20.1188 19.95 19.725 19.8258L16.7578 18.8906C15.9727 19.1695 15.1617 19.3289 14.3555 19.3734L14.3672 19.3828C12.2789 20.9039 9.54141 21.3609 7.03125 20.5313L4.05235 21.5016C3.97734 21.525 3.9 21.5391 3.82031 21.5391C3.40547 21.5391 3.07031 21.2039 3.07031 20.7891V17.6484C1.00547 14.8453 0.951563 10.9711 3.04688 8.08595ZM16.4297 17.2266L16.7109 17.1094L19.0312 17.8359L19.0547 15.3984L19.2422 15.1875C21.225 12.7688 21.3562 9.2836 19.5 6.72657C17.2406 3.62814 12.9094 2.94376 9.82031 5.1797C6.72188 7.43204 6.03516 11.7563 8.27344 14.8359C10.1508 17.4117 13.5117 18.3633 16.4297 17.2266ZM4.59375 16.8281L4.78125 17.0625L4.75781 19.5L7.05469 18.7266L7.33594 18.8438C8.64844 19.3313 10.0477 19.3711 11.3438 19.0078L11.3484 19.0055C9.61641 18.4734 8.04609 17.3953 6.91406 15.8438C5.12344 13.3758 4.83281 10.275 5.87344 7.63126L5.85938 7.64064C5.32031 8.02735 4.82578 8.51017 4.40625 9.09376C2.70469 11.4281 2.80078 14.6063 4.59375 16.8281Z" fill="#6D7274"/>
<path d="M13.8516 9.86719C14.393 9.86719 14.8125 10.2867 14.8125 10.8047C14.8125 11.3227 14.393 11.7422 13.8516 11.7422C13.357 11.7422 12.9375 11.3227 12.9375 10.8047C12.9375 10.2867 13.357 9.86719 13.8516 9.86719Z" fill="#6D7274"/>
</svg>
