<svg width="56" height="60" viewBox="0 0 56 60" fill="none" xmlns="http://www.w3.org/2000/svg">
<rect width="56" height="58.8" transform="translate(0 0.400024)" fill="#F2F2F2"/>
<path d="M33 29.4C33 30.7261 32.4732 31.9979 31.5355 32.9356C30.5979 33.8732 29.3261 34.4 28 34.4C26.6739 34.4 25.4021 33.8732 24.4645 32.9356C23.5268 31.9979 23 30.7261 23 29.4C23 28.0739 23.5268 26.8022 24.4645 25.8645C25.4021 24.9268 26.6739 24.4 28 24.4C29.3261 24.4 30.5979 24.9268 31.5355 25.8645C32.4732 26.8022 33 28.0739 33 29.4V29.4Z" fill="black"/>
<path d="M16 20.4C14.9391 20.4 13.9217 20.8215 13.1716 21.5716C12.4214 22.3217 12 23.3392 12 24.4V36.4C12 37.4609 12.4214 38.4783 13.1716 39.2285C13.9217 39.9786 14.9391 40.4 16 40.4H40C41.0609 40.4 42.0783 39.9786 42.8284 39.2285C43.5786 38.4783 44 37.4609 44 36.4V24.4C44 23.3392 43.5786 22.3217 42.8284 21.5716C42.0783 20.8215 41.0609 20.4 40 20.4H37.656C36.5952 20.3998 35.578 19.9782 34.828 19.228L33.172 17.572C32.422 16.8218 31.4048 16.4003 30.344 16.4H25.656C24.5952 16.4003 23.578 16.8218 22.828 17.572L21.172 19.228C20.422 19.9782 19.4048 20.3998 18.344 20.4H16ZM17 24.4C16.7348 24.4 16.4804 24.2947 16.2929 24.1071C16.1054 23.9196 16 23.6652 16 23.4C16 23.1348 16.1054 22.8805 16.2929 22.6929C16.4804 22.5054 16.7348 22.4 17 22.4C17.2652 22.4 17.5196 22.5054 17.7071 22.6929C17.8946 22.8805 18 23.1348 18 23.4C18 23.6652 17.8946 23.9196 17.7071 24.1071C17.5196 24.2947 17.2652 24.4 17 24.4ZM35 29.4C35 31.2565 34.2625 33.037 32.9497 34.3498C31.637 35.6625 29.8565 36.4 28 36.4C26.1435 36.4 24.363 35.6625 23.0503 34.3498C21.7375 33.037 21 31.2565 21 29.4C21 27.5435 21.7375 25.763 23.0503 24.4503C24.363 23.1375 26.1435 22.4 28 22.4C29.8565 22.4 31.637 23.1375 32.9497 24.4503C34.2625 25.763 35 27.5435 35 29.4V29.4Z" fill="black"/>
</svg>
