<svg width="24" height="24" viewBox="0 0 24 24" fill="none" xmlns="http://www.w3.org/2000/svg">
<g clip-path="url(#clip0_248_1036)">
<path fill-rule="evenodd" clip-rule="evenodd" d="M0.175284 6.96258C0.175284 6.16693 0.491355 5.40387 1.05396 4.84126C1.61657 4.27865 2.37963 3.96258 3.17528 3.96258H14.4253C15.1529 3.9625 15.8558 4.22687 16.403 4.70648C16.9502 5.18608 17.3045 5.84822 17.3998 6.56958L22.0648 4.49658C22.2931 4.39484 22.5433 4.35178 22.7925 4.37131C23.0417 4.39085 23.2821 4.47235 23.4918 4.60843C23.7015 4.7445 23.8739 4.93083 23.9932 5.15047C24.1126 5.37011 24.1752 5.6161 24.1753 5.86608V17.0591C24.1751 17.3089 24.1125 17.5546 23.9932 17.7741C23.8739 17.9936 23.7017 18.1798 23.4922 18.3158C23.2827 18.4518 23.0426 18.5334 22.7936 18.5531C22.5445 18.5728 22.2946 18.53 22.0663 18.4286L17.3998 16.3556C17.3045 17.077 16.9502 17.7391 16.403 18.2187C15.8558 18.6983 15.1529 18.9627 14.4253 18.9626H3.17528C2.37963 18.9626 1.61657 18.6465 1.05396 18.0839C0.491355 17.5213 0.175284 16.7582 0.175284 15.9626V6.96258Z" fill="#252322"/>
</g>
<defs>
<clipPath id="clip0_248_1036">
<rect width="24" height="24" fill="white"/>
</clipPath>
</defs>
</svg>
