<svg width="24" height="24" viewBox="0 0 24 24" fill="none" xmlns="http://www.w3.org/2000/svg">
<path d="M4.017 17.841C4.1727 17.9973 4.292 18.186 4.36641 18.3937C4.44082 18.6014 4.46851 18.8229 4.4475 19.0425C4.34208 20.0589 4.14221 21.0632 3.8505 22.0425C5.943 21.558 7.221 20.997 7.8015 20.703C8.13076 20.5362 8.50993 20.4967 8.8665 20.592C9.88865 20.8645 10.9421 21.0017 12 21C17.994 21 22.5 16.7895 22.5 12C22.5 7.212 17.994 3 12 3C6.006 3 1.5 7.212 1.5 12C1.5 14.202 2.4255 16.245 4.017 17.841ZM3.2775 23.6985C2.9221 23.769 2.56555 23.8335 2.208 23.892C1.908 23.94 1.68 23.628 1.7985 23.349C1.93169 23.0349 2.05376 22.7162 2.1645 22.3935L2.169 22.3785C2.541 21.2985 2.844 20.0565 2.955 18.9C1.1145 17.055 0 14.64 0 12C0 6.201 5.373 1.5 12 1.5C18.627 1.5 24 6.201 24 12C24 17.799 18.627 22.5 12 22.5C10.8115 22.5016 9.62788 22.3473 8.4795 22.041C7.6995 22.4355 6.021 23.154 3.2775 23.6985Z" fill="#6D7274"/>
<path d="M12.2422 14.7969H10.7891C10.7943 14.2969 10.8385 13.888 10.9219 13.5703C11.0104 13.2474 11.1536 12.9531 11.3516 12.6875C11.5495 12.4219 11.8125 12.1198 12.1406 11.7812C12.3802 11.5365 12.599 11.3073 12.7969 11.0938C13 10.875 13.1641 10.6406 13.2891 10.3906C13.4141 10.1354 13.4766 9.83073 13.4766 9.47656C13.4766 9.11719 13.4115 8.80729 13.2812 8.54688C13.1562 8.28646 12.9688 8.08594 12.7188 7.94531C12.474 7.80469 12.1693 7.73438 11.8047 7.73438C11.5026 7.73438 11.2161 7.78906 10.9453 7.89844C10.6745 8.00781 10.4557 8.17708 10.2891 8.40625C10.1224 8.63021 10.0365 8.92448 10.0312 9.28906H8.58594C8.59635 8.70052 8.74219 8.19531 9.02344 7.77344C9.3099 7.35156 9.69531 7.02865 10.1797 6.80469C10.6641 6.58073 11.2057 6.46875 11.8047 6.46875C12.4661 6.46875 13.0286 6.58854 13.4922 6.82812C13.9609 7.06771 14.3177 7.41146 14.5625 7.85938C14.8073 8.30208 14.9297 8.82812 14.9297 9.4375C14.9297 9.90625 14.8333 10.3385 14.6406 10.7344C14.4531 11.125 14.2109 11.4922 13.9141 11.8359C13.6172 12.1797 13.3021 12.5078 12.9688 12.8203C12.6823 13.0859 12.4896 13.3854 12.3906 13.7188C12.2917 14.0521 12.2422 14.4115 12.2422 14.7969ZM10.7266 17.2734C10.7266 17.0391 10.7995 16.8411 10.9453 16.6797C11.0911 16.5182 11.3021 16.4375 11.5781 16.4375C11.8594 16.4375 12.0729 16.5182 12.2188 16.6797C12.3646 16.8411 12.4375 17.0391 12.4375 17.2734C12.4375 17.4974 12.3646 17.6901 12.2188 17.8516C12.0729 18.013 11.8594 18.0938 11.5781 18.0938C11.3021 18.0938 11.0911 18.013 10.9453 17.8516C10.7995 17.6901 10.7266 17.4974 10.7266 17.2734Z" fill="#6D7274"/>
</svg>
