<svg width="24" height="24" viewBox="0 0 24 24" fill="none" xmlns="http://www.w3.org/2000/svg">
<path d="M3.96156 16.857C1.41006 14.58 5.91278e-05 12 5.91278e-05 12C5.91278e-05 12 4.50006 3.75 12.0001 3.75C13.4407 3.75496 14.865 4.05514 16.1851 4.632L15.0301 5.7885C14.0589 5.43473 13.0336 5.25252 12.0001 5.25C8.82006 5.25 6.18156 7.002 4.24806 8.9355C3.31753 9.87104 2.48334 10.8977 1.75806 12C1.84506 12.1305 1.94106 12.2745 2.05056 12.432C2.55306 13.152 3.29556 14.112 4.24806 15.0645C4.49556 15.312 4.75356 15.5565 5.02356 15.7935L3.96156 16.857Z" fill="black"/>
<path d="M7.05446 13.764C6.71972 12.8278 6.65774 11.8157 6.8757 10.8456C7.09367 9.87554 7.58263 8.98729 8.28569 8.28423C8.98874 7.58117 9.877 7.09221 10.8471 6.87424C11.8172 6.65628 12.8292 6.71827 13.7655 7.053L12.531 8.2875C11.9545 8.20499 11.3667 8.25786 10.8142 8.44194C10.2618 8.62602 9.75975 8.93624 9.34797 9.34801C8.9362 9.75979 8.62598 10.2618 8.4419 10.8143C8.25782 11.3668 8.20495 11.9545 8.28746 12.531L7.05446 13.764ZM11.469 15.7125L10.236 16.9455C11.1722 17.2802 12.1842 17.3422 13.1543 17.1243C14.1244 16.9063 15.0127 16.4173 15.7157 15.7143C16.4188 15.0112 16.9077 14.123 17.1257 13.1529C17.3437 12.1828 17.2817 11.1707 16.947 10.2345L15.7125 11.469C15.795 12.0455 15.7421 12.6332 15.558 13.1857C15.3739 13.7382 15.0637 14.2402 14.6519 14.652C14.2402 15.0638 13.7381 15.374 13.1857 15.5581C12.6332 15.7421 12.0454 15.795 11.469 15.7125Z" fill="black"/>
<path d="M18.975 8.20499C19.245 8.44499 19.5045 8.68799 19.752 8.93549C20.6825 9.87103 21.5167 10.8977 22.242 12L21.9495 12.432C21.447 13.152 20.7045 14.112 19.752 15.0645C17.8185 16.998 15.1785 18.75 12 18.75C10.926 18.75 9.915 18.5505 8.97 18.21L7.815 19.368C9.13509 19.9448 10.5594 20.245 12 20.25C19.5 20.25 24 12 24 12C24 12 22.5915 9.41849 20.0385 7.14299L18.9765 8.20649L18.975 8.20499ZM3.531 21.531L21.531 3.53099L20.469 2.46899L2.469 20.469L3.531 21.531Z" fill="black"/>
</svg>
