<svg width="24" height="24" viewBox="0 0 24 24" fill="none" xmlns="http://www.w3.org/2000/svg">
<path d="M16.5 9.96004C16.5 9.73203 16.448 9.50703 16.348 9.30213C16.248 9.09722 16.1026 8.91782 15.9228 8.77754C15.7431 8.63727 15.5337 8.53982 15.3106 8.4926C15.0876 8.44538 14.8567 8.44964 14.6355 8.50504L13.1355 8.88004C12.8111 8.9613 12.5232 9.14861 12.3175 9.41223C12.1118 9.67585 12 10.0007 12 10.335V16.794C11.5246 16.597 11.0146 16.497 10.5 16.5C9.75 16.5 9.039 16.701 8.493 17.0655C7.953 17.4255 7.5 18.0075 7.5 18.75C7.5 19.4925 7.9515 20.0745 8.493 20.4345C9.039 20.799 9.7515 21 10.5 21C11.25 21 11.961 20.799 12.507 20.4345C13.047 20.0745 13.5 19.4925 13.5 18.75V13.335L16.5 12.585V9.96004V9.96004Z" fill="#252322"/>
<path d="M21 21V6.75L14.25 0H6C5.20435 0 4.44129 0.316071 3.87868 0.87868C3.31607 1.44129 3 2.20435 3 3V21C3 21.7956 3.31607 22.5587 3.87868 23.1213C4.44129 23.6839 5.20435 24 6 24H18C18.7956 24 19.5587 23.6839 20.1213 23.1213C20.6839 22.5587 21 21.7956 21 21ZM14.25 4.5C14.25 5.09674 14.4871 5.66903 14.909 6.09099C15.331 6.51295 15.9033 6.75 16.5 6.75H19.5V21C19.5 21.3978 19.342 21.7794 19.0607 22.0607C18.7794 22.342 18.3978 22.5 18 22.5H6C5.60218 22.5 5.22064 22.342 4.93934 22.0607C4.65804 21.7794 4.5 21.3978 4.5 21V3C4.5 2.60218 4.65804 2.22064 4.93934 1.93934C5.22064 1.65804 5.60218 1.5 6 1.5H14.25V4.5Z" fill="#252322"/>
</svg>
