<svg width="24" height="24" viewBox="0 0 24 24" fill="none" xmlns="http://www.w3.org/2000/svg">
<path d="M9.25799 1.08299C9.15944 1.08282 9.06181 1.10207 8.9707 1.13965C8.87958 1.17722 8.79677 1.23239 8.72699 1.30199L1.30199 8.72699C1.16139 8.86764 1.0824 9.05837 1.0824 9.25724C1.0824 9.45612 1.16139 9.64685 1.30199 9.78749C2.02199 10.5075 2.90999 10.6695 3.55649 10.6695C3.82199 10.6695 4.05899 10.6425 4.24649 10.611L8.94749 15.312C8.82374 15.8106 8.74344 16.319 8.70749 16.8315C8.63849 17.8845 8.75549 19.362 9.78749 20.394C9.92814 20.5346 10.1189 20.6136 10.3177 20.6136C10.5166 20.6136 10.7073 20.5346 10.848 20.394L15.0915 16.152L19.8645 20.925C20.157 21.2175 21.693 22.278 21.9855 21.9855C22.278 21.693 21.2175 20.1555 20.925 19.8645L16.152 15.0915L20.394 10.848C20.5346 10.7073 20.6136 10.5166 20.6136 10.3177C20.6136 10.1189 20.5346 9.92814 20.394 9.78749C19.362 8.75549 17.8845 8.63699 16.8315 8.70749C16.319 8.7434 15.8106 8.8237 15.312 8.94749L10.611 4.24799C10.6502 4.01957 10.6703 3.78826 10.671 3.55649C10.671 2.91149 10.509 2.02349 9.78749 1.30199C9.64693 1.16179 9.45652 1.08304 9.25799 1.08299ZM9.07499 4.25099V4.24799V4.25099ZM9.07499 4.24799V4.25099C9.03168 4.38295 9.02585 4.52434 9.05816 4.65941C9.09047 4.79448 9.15965 4.91793 9.25799 5.01599L14.5605 10.317C14.659 10.4151 14.7829 10.4839 14.9182 10.5157C15.0536 10.5475 15.1951 10.541 15.327 10.497H15.33L15.351 10.491C15.4937 10.4482 15.6378 10.4102 15.783 10.377C16.1603 10.289 16.544 10.2308 16.9305 10.203C17.5635 10.161 18.1845 10.215 18.693 10.428L10.428 18.6915C10.2165 18.1815 10.1625 17.562 10.2045 16.929C10.2427 16.3931 10.3393 15.863 10.4925 15.348L10.4985 15.3285V15.327C10.5428 15.1949 10.5494 15.0531 10.5176 14.9174C10.4858 14.7818 10.4169 14.6577 10.3185 14.559L5.01449 9.25649C4.91236 9.15373 4.78264 9.08276 4.64102 9.05215C4.49941 9.02153 4.35196 9.0326 4.21649 9.08399L4.07249 9.11699C3.94199 9.14249 3.76049 9.16799 3.55649 9.16799C3.38549 9.16799 3.21149 9.15149 3.04199 9.10799L9.10949 3.04199C9.15299 3.21149 9.16949 3.38699 9.16949 3.55649C9.16876 3.78957 9.13749 4.02154 9.07649 4.24649L9.07499 4.24799Z" fill="black"/>
</svg>
