<svg width="12" height="12" viewBox="0 0 12 12" fill="none" xmlns="http://www.w3.org/2000/svg">
<path d="M7.37094 0.541505C7.42022 0.541416 7.46903 0.551042 7.51459 0.569831C7.56015 0.58862 7.60155 0.616203 7.63644 0.651004L11.3489 4.3635C11.4192 4.43383 11.4587 4.52919 11.4587 4.62863C11.4587 4.72807 11.4192 4.82343 11.3489 4.89375C10.9889 5.25375 10.5449 5.33475 10.2217 5.33475C10.0889 5.33475 9.97044 5.32125 9.87669 5.3055L7.52619 7.656C7.58807 7.90531 7.62822 8.15951 7.64619 8.41575C7.68069 8.94225 7.62219 9.681 7.10619 10.197C7.03587 10.2673 6.9405 10.3068 6.84107 10.3068C6.74163 10.3068 6.64627 10.2673 6.57594 10.197L4.45419 8.076L2.06769 10.4625C1.92144 10.6088 1.15344 11.139 1.00719 10.9928C0.860942 10.8465 1.39119 10.0778 1.53744 9.93225L3.92394 7.54575L1.80294 5.424C1.73264 5.35368 1.69315 5.25832 1.69315 5.15888C1.69315 5.05944 1.73264 4.96408 1.80294 4.89375C2.31894 4.37775 3.05769 4.3185 3.58419 4.35375C3.84044 4.37171 4.09464 4.41186 4.34394 4.47375L6.69444 2.124C6.67482 2.00979 6.66479 1.89414 6.66444 1.77825C6.66444 1.45575 6.74544 1.01175 7.10619 0.651004C7.17647 0.580903 7.27168 0.541526 7.37094 0.541505ZM7.46244 2.1255V2.124V2.1255ZM7.46244 2.124V2.1255C7.4841 2.19148 7.48702 2.26218 7.47086 2.32971C7.4547 2.39725 7.42011 2.45897 7.37094 2.508L4.71969 5.1585C4.67043 5.20756 4.6085 5.24195 4.54083 5.25784C4.47315 5.27373 4.40239 5.2705 4.33644 5.2485H4.33494L4.32444 5.2455C4.25309 5.22413 4.18105 5.20512 4.10844 5.1885C3.91977 5.14449 3.72793 5.1154 3.53469 5.1015C3.21819 5.0805 2.90769 5.1075 2.65344 5.214L6.78594 9.34575C6.89169 9.09075 6.91869 8.781 6.89769 8.4645C6.87859 8.19655 6.8303 7.93148 6.75369 7.674L6.75069 7.66425V7.6635C6.72855 7.59746 6.72523 7.52654 6.74113 7.45872C6.75703 7.39089 6.7915 7.32884 6.84069 7.2795L9.49269 4.62825C9.54376 4.57687 9.60862 4.54139 9.67943 4.52608C9.75024 4.51077 9.82396 4.51631 9.89169 4.542L9.96369 4.5585C10.0289 4.57125 10.1197 4.584 10.2217 4.584C10.3072 4.584 10.3942 4.57575 10.4789 4.554L7.44519 1.521C7.42344 1.60575 7.41519 1.6935 7.41519 1.77825C7.41556 1.89479 7.43119 2.01078 7.46169 2.12325L7.46244 2.124Z" fill="#6D7274"/>
</svg>
