<svg width="32" height="32" viewBox="0 0 32 32" fill="none" xmlns="http://www.w3.org/2000/svg">
<rect width="32" height="32" rx="16" fill="#DCDCDC"/>
<path d="M16 4.9375L15.3903 5.8285C15.3903 5.8285 14.986 6.39325 14.5938 7.0705C14.3973 7.41025 14.2128 7.765 14.0545 8.125C13.897 8.485 13.75 8.8165 13.75 9.25C13.75 10.4837 14.7663 11.5 16 11.5C17.2338 11.5 18.25 10.4837 18.25 9.25C18.25 8.8165 18.1038 8.485 17.9455 8.125C17.7873 7.765 17.6028 7.41025 17.4063 7.0705C17.014 6.39325 16.609 5.82775 16.609 5.82775L16 4.9375ZM16 11.5H13.75V14.5H9.25001C7.59251 14.5 6.25001 15.8425 6.25001 17.5C6.24813 18.2333 6.51494 18.942 7.00001 19.492V25H25V19.492C25.4851 18.942 25.7519 18.2333 25.75 17.5C25.75 15.8425 24.4075 14.5 22.75 14.5H18.25V11.5H16ZM16 7.65625C16.0495 7.73875 16.0443 7.73275 16.0938 7.8205C16.2723 8.128 16.4628 8.45575 16.5858 8.734C16.7088 9.013 16.75 9.27025 16.75 9.25C16.75 9.66625 16.4163 10 16 10C15.5838 10 15.25 9.66625 15.25 9.25C15.25 9.27025 15.2913 9.013 15.4143 8.734C15.5373 8.4565 15.7278 8.128 15.9063 7.8205C15.9558 7.73275 15.9505 7.738 16 7.65625ZM15.25 13H16.75V14.5H15.25V13ZM9.25001 16H22.75C23.6433 16 24.25 16.6068 24.25 17.5C24.25 18.3932 23.6433 19 22.75 19C21.8568 19 21.25 18.3932 21.25 17.5H19.75C19.75 18.3932 19.1433 19 18.25 19C17.3568 19 16.75 18.3932 16.75 17.5H15.25C15.25 18.3932 14.6433 19 13.75 19C12.8568 19 12.25 18.3932 12.25 17.5H10.75C10.75 18.3932 10.1433 19 9.25001 19C8.35676 19 7.75001 18.3932 7.75001 17.5C7.75001 16.6068 8.35676 16 9.25001 16ZM11.5 19.492C11.7819 19.8102 12.1284 20.0647 12.5164 20.2385C12.9043 20.4123 13.3249 20.5014 13.75 20.5C14.1751 20.5014 14.5957 20.4123 14.9836 20.2385C15.3716 20.0647 15.7181 19.8102 16 19.492C16.2819 19.8102 16.6284 20.0647 17.0164 20.2385C17.4043 20.4123 17.8249 20.5014 18.25 20.5C18.6751 20.5014 19.0957 20.4123 19.4836 20.2385C19.8716 20.0647 20.2181 19.8102 20.5 19.492C20.7819 19.8102 21.1284 20.0647 21.5164 20.2385C21.9043 20.4123 22.3249 20.5014 22.75 20.5C23.011 20.5 23.26 20.4445 23.5 20.383V23.5H8.50001V20.383C8.74001 20.4445 8.98901 20.5 9.25001 20.5C9.67513 20.5014 10.0957 20.4123 10.4836 20.2385C10.8716 20.0647 11.2181 19.8102 11.5 19.492Z" fill="black"/>
</svg>
