<svg width="24" height="24" viewBox="0 0 24 24" fill="none" xmlns="http://www.w3.org/2000/svg">
<path d="M13 7.05V4C13 3.73478 13.1054 3.48043 13.2929 3.29289C13.4804 3.10536 13.7348 3 14 3C14.2623 3.0011 14.5137 3.10526 14.7 3.29L21.7 10.29C21.7937 10.383 21.8681 10.4936 21.9189 10.6154C21.9697 10.7373 21.9958 10.868 21.9958 11C21.9958 11.132 21.9697 11.2627 21.9189 11.3846C21.8681 11.5064 21.7937 11.617 21.7 11.71L14.7 18.71C14.5596 18.8476 14.3818 18.9408 14.1887 18.9779C13.9957 19.015 13.796 18.9944 13.6146 18.9186C13.4332 18.8429 13.2782 18.7153 13.1689 18.5519C13.0596 18.3886 13.0008 18.1966 13 18V14.9H12.15C10.5701 14.8764 9.00396 15.197 7.56034 15.8393C6.11671 16.4817 4.83017 17.4306 3.79001 18.62C3.66465 18.7869 3.49022 18.9104 3.29117 18.9731C3.09212 19.0359 2.87841 19.0348 2.68001 18.97C2.4781 18.9019 2.30324 18.771 2.18092 18.5965C2.0586 18.422 1.99521 18.213 2.00001 18C2.00001 8.88 10.08 7.32 13 7.05ZM12.15 12.88C12.8188 12.8779 13.4871 12.9213 14.15 13.01C14.3867 13.0459 14.6027 13.1656 14.7587 13.3473C14.9147 13.5289 15.0003 13.7606 15 14V15.59L19.58 11L15 6.41V8C15 8.26522 14.8946 8.51957 14.7071 8.70711C14.5196 8.89464 14.2652 9 14 9C13.09 9 5.89001 9.2 4.33001 15.43C6.59431 13.7606 9.33684 12.8663 12.15 12.88Z" fill="#6D7274"/>
</svg>
