<svg width="32" height="32" viewBox="0 0 32 32" fill="none" xmlns="http://www.w3.org/2000/svg">
<rect width="32" height="32" rx="16" fill="#DCDCDC"/>
<path d="M16 6C10.486 6 6 10.486 6 16C6 21.514 10.486 26 16 26C21.514 26 26 21.514 26 16C26 10.486 21.514 6 16 6ZM17 22H15V20H17V22ZM17.976 17.115C17.78 17.273 17.591 17.424 17.441 17.574C17.033 17.981 17.001 18.351 17 18.367V18.5H15V18.333C15 18.215 15.029 17.156 16.026 16.159C16.221 15.964 16.463 15.766 16.717 15.56C17.451 14.965 17.933 14.531 17.933 13.933C17.9214 13.4278 17.7125 12.9473 17.3511 12.5941C16.9896 12.241 16.5043 12.0433 15.999 12.0435C15.4937 12.0436 15.0085 12.2415 14.6472 12.5948C14.286 12.9481 14.0774 13.4288 14.066 13.934H12.066C12.066 11.765 13.831 10 16 10C18.169 10 19.934 11.765 19.934 13.934C19.934 15.531 18.755 16.484 17.976 17.115Z" fill="black"/>
</svg>
