<svg width="32" height="22" viewBox="0 0 32 22" fill="none" xmlns="http://www.w3.org/2000/svg">
<g clip-path="url(#clip0_15_154)">
<path d="M25.441 3.71428C25.441 2.906 25.1059 2.13083 24.5096 1.55929C23.9132 0.987752 23.1043 0.666664 22.2609 0.666664H3.18012C2.3367 0.666664 1.52783 0.987752 0.931437 1.55929C0.335048 2.13083 0 2.906 0 3.71428V18.9524C0 19.7607 0.335048 20.5358 0.931437 21.1074C1.52783 21.6789 2.3367 22 3.18012 22H22.2609C23.1043 22 23.9132 21.6789 24.5096 21.1074C25.1059 20.5358 25.441 19.7607 25.441 18.9524V13.8735L31.8012 18.9524V3.71428L25.441 8.79314V3.71428ZM19.0807 12.8571H14.3106V17.4286H11.1304V12.8571H6.36025V9.80952H11.1304V5.23809H14.3106V9.80952H19.0807V12.8571Z" fill="url(#paint0_linear_15_154)"/>
</g>
<defs>
<linearGradient id="paint0_linear_15_154" x1="15.9006" y1="0.666664" x2="15.9006" y2="22" gradientUnits="userSpaceOnUse">
<stop stop-color="#FEB682"/>
<stop offset="1" stop-color="#F37418"/>
</linearGradient>
<clipPath id="clip0_15_154">
<rect width="32" height="21.3333" fill="white" transform="translate(32 22) rotate(-180)"/>
</clipPath>
</defs>
</svg>
