<svg width="32" height="32" viewBox="0 0 32 32" fill="none" xmlns="http://www.w3.org/2000/svg">
<rect width="32" height="32" rx="16" fill="#DCDCDC"/>
<g clip-path="url(#clip0_747_3663)">
<path fill-rule="evenodd" clip-rule="evenodd" d="M18.2 10.8C18.2 13.4509 16.0513 15.6 13.4 15.6C10.7488 15.6 8.6 13.4509 8.6 10.8C8.6 8.14913 10.7488 6 13.4 6C16.0513 6 18.2 8.14913 18.2 10.8ZM5 23.8988C5 20.31 7.91037 17.4 11.4988 17.4H15.3013C18.89 17.4 21.8 20.31 21.8 23.8988C21.8 24.6187 21.2188 25.2 20.501 25.2H6.29975C5.582 25.2 5 24.6187 5 23.8988Z" fill="#252322"/>
<path d="M27 13.5L26.3 13.5H24.5H22.7C22.205 13.5 21.8 13.905 21.8 14.4C21.8 14.8231 22.0945 15.1805 22.4904 15.2753C22.5675 15.2928 22.6398 15.3 22.7 15.3H24.5H26.3L27 15.5C27.0195 15.5 26.1786 15.2994 26.1977 15.2982C26.6692 15.2685 27 15 27.0398 14.4C27.0398 13.7734 26.7589 13.6338 26.3752 13.5308C26.3662 13.5284 26.3572 13.5262 26.3482 13.524C26.2716 13.5068 27.0599 13.5 27 13.5Z" fill="#252322"/>
<path d="M26.3752 13.5308C26.6775 13.6071 27.0398 13.8405 27.0398 14.4C27 15 26.6692 15.2685 26.1977 15.2982L25.5398 16C25.3731 16.1667 25.1398 16.6 25.5398 17C25.9398 17.4 26.3731 17.1667 26.5398 17L28.5398 15C29 14.5 28.9398 13.9 28.5398 13.5C28.1398 13.1 27.214 12.1333 26.8011 11.7C26.5473 11.4667 25.9398 11.1 25.5398 11.5C25.1398 11.9 25.3731 12.3333 25.5398 12.5L26.3482 13.524C26.3572 13.5262 26.3662 13.5284 26.3752 13.5308Z" fill="#252322"/>
</g>
<defs>
<clipPath id="clip0_747_3663">
<rect width="24" height="19.2" fill="white" transform="translate(5 6)"/>
</clipPath>
</defs>
</svg>
