<svg width="43" height="43" viewBox="0 0 43 43" fill="none" xmlns="http://www.w3.org/2000/svg">
<path fill-rule="evenodd" clip-rule="evenodd" d="M20.8329 25.5204C19.729 25.5204 18.8307 24.6377 18.8307 23.5531C18.8307 22.4684 19.729 21.5857 20.8329 21.5857C21.9368 21.5857 22.8352 22.4684 22.8352 23.5531C22.8352 24.6377 21.9368 25.5204 20.8329 25.5204ZM20.8329 18.9625C18.2567 18.9625 16.161 21.0217 16.161 23.5531C16.161 26.0844 18.2567 28.1436 20.8329 28.1436C23.4092 28.1436 25.5048 26.0844 25.5048 23.5531C25.5048 21.0217 23.4092 18.9625 20.8329 18.9625ZM31.5116 28.7994C31.5116 29.5221 30.9136 30.111 30.1768 30.111H11.4891C10.7523 30.111 10.1543 29.5221 10.1543 28.7994V18.3068C10.1543 17.5841 10.7523 16.9952 11.4891 16.9952H30.1768C30.9136 16.9952 31.5116 17.5841 31.5116 18.3068V28.7994ZM18.1633 12.4046C18.1633 12.0427 18.4636 11.7489 18.8307 11.7489H22.8352C23.2023 11.7489 23.5026 12.0427 23.5026 12.4046V14.372H18.1633V12.4046ZM30.1768 14.372H26.1723V12.4046C26.1723 10.5973 24.6759 9.1257 22.8352 9.1257H18.8307C16.9899 9.1257 15.4936 10.5973 15.4936 12.4046V14.372H11.4891C9.28128 14.372 7.48459 16.1374 7.48459 18.3068V28.7994C7.48459 30.9687 9.28128 32.7341 11.4891 32.7341H30.1768C32.3846 32.7341 34.1813 30.9687 34.1813 28.7994V18.3068C34.1813 16.1374 32.3846 14.372 30.1768 14.372Z" fill="#F2F2F2"/>
</svg>
