<svg width="24" height="24" viewBox="0 0 24 24" fill="none" xmlns="http://www.w3.org/2000/svg">
<path d="M19.5 19.5H4.5V4.5H12V3H4.5C4.1023 3.0004 3.721 3.15856 3.43978 3.43978C3.15856 3.721 3.0004 4.1023 3 4.5V19.5C3.0004 19.8977 3.15856 20.279 3.43978 20.5602C3.721 20.8414 4.1023 20.9996 4.5 21H19.5C19.8977 20.9996 20.279 20.8414 20.5602 20.5602C20.8414 20.279 20.9996 19.8977 21 19.5V12H19.5V19.5Z" fill="#6D7274"/>
<path d="M19.5 19.5H4.5V4.5H12V3H4.5C4.1023 3.0004 3.721 3.15856 3.43978 3.43978C3.15856 3.721 3.0004 4.1023 3 4.5V19.5C3.0004 19.8977 3.15856 20.279 3.43978 20.5602C3.721 20.8414 4.1023 20.9996 4.5 21H19.5C19.8977 20.9996 20.279 20.8414 20.5602 20.5602C20.8414 20.279 20.9996 19.8977 21 19.5V12H19.5V19.5Z" fill="#6D7274"/>
<path d="M19.5 4.5V1.5H18V4.5H15V6H18V9H19.5V6H22.5V4.5H19.5Z" fill="#6D7274"/>
</svg>
