<svg width="32" height="32" viewBox="0 0 32 32" fill="none" xmlns="http://www.w3.org/2000/svg">
<rect width="32" height="32" rx="16" fill="#DCDCDC"/>
<path d="M16 5.5C13.8128 5.50258 11.7158 6.3726 10.1692 7.91922C8.6226 9.46584 7.75258 11.5628 7.75 13.75C7.74738 15.5374 8.33124 17.2763 9.412 18.7C9.412 18.7 9.637 18.9963 9.67375 19.039L16 26.5L22.3293 19.0353C22.3623 18.9955 22.588 18.7 22.588 18.7L22.5888 18.6978C23.669 17.2747 24.2526 15.5366 24.25 13.75C24.2474 11.5628 23.3774 9.46584 21.8308 7.91922C20.2842 6.3726 18.1872 5.50258 16 5.5ZM20.5 15.25C20.4996 15.6477 20.3414 16.029 20.0602 16.3102C19.779 16.5914 19.3977 16.7496 19 16.75H17.9013L16.624 18.6663L15.376 17.8337L17.0988 15.25H19V11.5H13V15.25H14.5V16.75H13C12.6023 16.7496 12.221 16.5914 11.9398 16.3102C11.6586 16.029 11.5004 15.6477 11.5 15.25V11.5C11.5004 11.1023 11.6586 10.721 11.9398 10.4398C12.221 10.1586 12.6023 10.0004 13 10H19C19.3977 10.0004 19.779 10.1586 20.0602 10.4398C20.3414 10.721 20.4996 11.1023 20.5 11.5V15.25Z" fill="black"/>
</svg>
