<svg width="32" height="32" viewBox="0 0 32 32" fill="none" xmlns="http://www.w3.org/2000/svg">
<path d="M29.3333 6.79112C28.1422 4.34668 24.7111 2.34668 20.72 3.51112C18.8128 4.062 17.1489 5.24337 16 6.86223C14.8511 5.24337 13.1871 4.062 11.28 3.51112C7.27999 2.36445 3.85777 4.34668 2.66666 6.79112C0.995549 10.2133 1.68888 14.0622 4.72888 18.2311C7.11111 21.4933 10.5155 24.8 15.4578 28.64C15.614 28.7618 15.8064 28.828 16.0044 28.828C16.2025 28.828 16.3949 28.7618 16.5511 28.64C21.4844 24.8089 24.8978 21.5289 27.28 18.2311C30.3111 14.0622 31.0044 10.2133 29.3333 6.79112Z" fill="#FD6161"/>
</svg>
