<svg width="32" height="32" viewBox="0 0 32 32" fill="none" xmlns="http://www.w3.org/2000/svg">
<rect width="32" height="32" rx="16" fill="#DCDCDC"/>
<g clip-path="url(#clip0_747_3358)">
<path d="M26.8938 17.9987C26.9913 17.47 26.9913 16.93 26.8938 16.4013L27.8612 15.8425C27.9738 15.7788 28.0225 15.6475 27.985 15.5238C27.7337 14.7137 27.3025 13.9788 26.74 13.3713C26.6538 13.2775 26.515 13.255 26.4025 13.3188L25.435 13.8775C25.0263 13.5288 24.5575 13.2588 24.0513 13.0788V11.9613C24.0513 11.8338 23.9613 11.7213 23.8375 11.695C23.0013 11.5075 22.15 11.515 21.355 11.695C21.2313 11.7213 21.1413 11.8338 21.1413 11.9613V13.0788C20.635 13.2588 20.1663 13.5288 19.7575 13.8775L18.79 13.3188C18.6813 13.255 18.5388 13.2775 18.4525 13.3713C17.89 13.9788 17.4588 14.7137 17.2075 15.5238C17.17 15.6475 17.2225 15.7788 17.3313 15.8425L18.2987 16.4013C18.2013 16.93 18.2013 17.47 18.2987 17.9987L17.3313 18.5575C17.2188 18.6213 17.17 18.7525 17.2075 18.8763C17.4588 19.6863 17.89 20.4175 18.4525 21.0288C18.5388 21.1225 18.6775 21.145 18.79 21.0813L19.7575 20.5225C20.1663 20.8713 20.635 21.1413 21.1413 21.3213V22.4388C21.1413 22.5663 21.2313 22.6788 21.355 22.705C22.1912 22.8925 23.0425 22.885 23.8375 22.705C23.9613 22.6788 24.0513 22.5663 24.0513 22.4388V21.3213C24.5575 21.1413 25.0263 20.8713 25.435 20.5225L26.4025 21.0813C26.5113 21.145 26.6538 21.1225 26.74 21.0288C27.3025 20.4213 27.7337 19.6863 27.985 18.8763C28.0225 18.7525 27.97 18.6213 27.8612 18.5575L26.8938 17.9987ZM22.6 19.0188C21.595 19.0188 20.7812 18.2013 20.7812 17.2C20.7812 16.1988 21.5988 15.3813 22.6 15.3813C23.6013 15.3813 24.4188 16.1988 24.4188 17.2C24.4188 18.2013 23.605 19.0188 22.6 19.0188ZM12.4 13.6C15.0513 13.6 17.2 11.4513 17.2 8.8C17.2 6.14875 15.0513 4 12.4 4C9.74875 4 7.6 6.14875 7.6 8.8C7.6 11.4513 9.74875 13.6 12.4 13.6ZM19.945 22.0938C19.8588 22.0487 19.7725 21.9963 19.69 21.9475L19.3938 22.12C19.1688 22.2475 18.9138 22.3188 18.6588 22.3188C18.25 22.3188 17.8563 22.1462 17.575 21.8463C16.8888 21.1038 16.3638 20.2 16.0675 19.2362C15.8612 18.5725 16.1388 17.8713 16.7388 17.5225L17.035 17.35C17.0313 17.2525 17.0313 17.155 17.035 17.0575L16.7388 16.885C16.1388 16.54 15.8612 15.835 16.0675 15.1713C16.1012 15.0625 16.15 14.9538 16.1875 14.845C16.045 14.8338 15.9063 14.8 15.76 14.8H15.1337C14.3013 15.1825 13.375 15.4 12.4 15.4C11.425 15.4 10.5025 15.1825 9.66625 14.8H9.04C6.2575 14.8 4 17.0575 4 19.84V21.4C4 22.3938 4.80625 23.2 5.8 23.2H19C19.3788 23.2 19.7313 23.08 20.02 22.8813C19.975 22.7388 19.945 22.5925 19.945 22.4388V22.0938Z" fill="black"/>
</g>
<defs>
<clipPath id="clip0_747_3358">
<rect width="24" height="19.2" fill="white" transform="translate(4 4)"/>
</clipPath>
</defs>
</svg>
