<svg width="32" height="34" viewBox="0 0 32 34" fill="none" xmlns="http://www.w3.org/2000/svg">
<g clip-path="url(#clip0_250_166)">
<path d="M26.1818 3.95453H24.7273V1.04544H21.8182V3.95453H7.27273V1.04544H4.36364V3.95453H2.90909C2.13755 3.95453 1.39761 4.26102 0.852053 4.80658C0.306493 5.35214 0 6.09208 0 6.86362V30.1364C0 30.9079 0.306493 31.6478 0.852053 32.1934C1.39761 32.7389 2.13755 33.0454 2.90909 33.0454H26.1818C26.9534 33.0454 27.6933 32.7389 28.2389 32.1934C28.7844 31.6478 29.0909 30.9079 29.0909 30.1364V6.86362C29.0909 6.09208 28.7844 5.35214 28.2389 4.80658C27.6933 4.26102 26.9534 3.95453 26.1818 3.95453ZM8.04364 30.1364H2.90909V25.0018L16.5964 11.3145L21.7309 16.4491L8.04364 30.1364ZM25.7745 12.4054L23.0982 15.0818L17.9636 9.94726L20.6545 7.2709C20.7793 7.14246 20.9285 7.04036 21.0934 6.97063C21.2583 6.90091 21.4355 6.86499 21.6145 6.86499C21.7936 6.86499 21.9708 6.90091 22.1357 6.97063C22.3006 7.04036 22.4498 7.14246 22.5745 7.2709L25.7745 10.4709C25.9016 10.5979 26.0025 10.7487 26.0713 10.9146C26.1401 11.0806 26.1755 11.2585 26.1755 11.4382C26.1755 11.6178 26.1401 11.7957 26.0713 11.9617C26.0025 12.1277 25.9016 12.2785 25.7745 12.4054Z" fill="url(#paint0_linear_250_166)"/>
</g>
<defs>
<linearGradient id="paint0_linear_250_166" x1="14.5455" y1="1.04544" x2="14.5455" y2="33.0454" gradientUnits="userSpaceOnUse">
<stop stop-color="#FEB682"/>
<stop offset="1" stop-color="#F37418"/>
</linearGradient>
<clipPath id="clip0_250_166">
<rect width="32" height="33.4545" fill="white"/>
</clipPath>
</defs>
</svg>
