<svg width="8" height="10" viewBox="0 0 8 10" fill="none" xmlns="http://www.w3.org/2000/svg">
<path d="M3.86787 0.680845L7.75423 4.66845L7.75423 4.66845L7.68262 4.73825C7.75088 4.80828 7.78908 4.9022 7.78908 5C7.78908 5.09779 7.75088 5.19171 7.68262 5.26174L3.86787 0.680845ZM3.86787 0.680845C3.86785 0.680821 3.86783 0.680797 3.8678 0.680772L3.86773 0.6807L3.86787 0.680845ZM0.307118 0.749745L0.235576 0.679875C0.276756 0.63771 0.325965 0.604223 0.3803 0.581389C0.434634 0.558555 0.492992 0.546837 0.551929 0.546927C0.610867 0.547018 0.669189 0.558915 0.723452 0.581915C0.777686 0.604903 0.826767 0.638516 0.867803 0.680772L0.867732 0.6807L0.796118 0.750495L0.867873 0.680845L4.75423 4.66845L4.75423 4.66845L4.68262 4.73825C4.75088 4.80828 4.78908 4.9022 4.78908 5C4.78908 5.09779 4.75088 5.19171 4.68262 5.26174L0.307118 0.749745ZM0.307118 0.749745L0.235478 0.679975C0.152101 0.765586 0.105444 0.880367 0.105444 0.99987C0.105444 1.11937 0.152101 1.23415 0.235478 1.31977L0.235503 1.31979M0.307118 0.749745L0.235503 1.31979M0.235503 1.31979L3.82222 4.99998L0.23558 8.67862L0.235503 1.31979ZM6.82222 4.99998L3.23558 8.67862L6.82222 4.99998Z" fill="#6D7274" stroke="#6D7274" stroke-width="0.2"/>
</svg>
