<svg width="12" height="12" viewBox="0 0 12 12" fill="none" xmlns="http://www.w3.org/2000/svg">
<path d="M10.3192 5.86775L6.33157 9.75411L6.33157 9.75411L6.26177 9.6825C6.19174 9.75076 6.09781 9.78896 6.00002 9.78896C5.90223 9.78896 5.8083 9.75076 5.73827 9.6825L10.3192 5.86775ZM10.3192 5.86775C10.3192 5.86773 10.3192 5.8677 10.3192 5.86768L10.3193 5.86761L10.3192 5.86775ZM10.2503 2.307L10.3201 2.23545C10.3623 2.27663 10.3958 2.32584 10.4186 2.38018C10.4415 2.43451 10.4532 2.49287 10.4531 2.55181C10.453 2.61074 10.4411 2.66907 10.4181 2.72333C10.3951 2.77756 10.3615 2.82664 10.3192 2.86768L10.3193 2.86761L10.2495 2.796L10.3192 2.86775L6.33157 6.75411L6.33157 6.75411L6.26177 6.6825C6.19174 6.75076 6.09781 6.78896 6.00002 6.78896C5.90223 6.78896 5.8083 6.75076 5.73827 6.6825L10.2503 2.307ZM10.2503 2.307L10.32 2.23536C10.2344 2.15198 10.1196 2.10532 10.0001 2.10532C9.88064 2.10532 9.76586 2.15198 9.68025 2.23536L9.68022 2.23538M10.2503 2.307L9.68022 2.23538M9.68022 2.23538L6.00003 5.82209L2.32139 2.23546L9.68022 2.23538ZM6.00003 8.8221L2.32139 5.23546L6.00003 8.8221Z" fill="#6D7274" stroke="#6D7274" stroke-width="0.2"/>
</svg>
