<svg width="32" height="32" viewBox="0 0 32 32" fill="none" xmlns="http://www.w3.org/2000/svg">
<path d="M13.228 2C13.0163 2.00001 12.8101 2.06721 12.639 2.19193C12.4679 2.31664 12.3408 2.49244 12.276 2.694L11.176 6.112C10.714 6.338 10.272 6.592 9.85003 6.878L6.33803 6.122C6.13096 6.07779 5.9152 6.10045 5.72183 6.18671C5.52846 6.27297 5.36746 6.41838 5.26203 6.602L2.49003 11.4C2.38418 11.5835 2.33934 11.7959 2.36199 12.0065C2.38463 12.2172 2.47359 12.4152 2.61603 12.572L5.02603 15.232C4.99093 15.7421 4.99093 16.2539 5.02603 16.764L2.61603 19.428C2.47359 19.5848 2.38463 19.7828 2.36199 19.9935C2.33934 20.2041 2.38418 20.4165 2.49003 20.6L5.26203 25.4C5.36775 25.5833 5.52888 25.7283 5.72222 25.8141C5.91557 25.9 6.13117 25.9224 6.33803 25.878L9.85003 25.122C10.27 25.406 10.714 25.662 11.174 25.888L12.276 29.306C12.3408 29.5076 12.4679 29.6834 12.639 29.8081C12.8101 29.9328 13.0163 30 13.228 30H18.772C18.9837 30 19.19 29.9328 19.3611 29.8081C19.5322 29.6834 19.6592 29.5076 19.724 29.306L20.822 25.89C21.2828 25.6647 21.7272 25.4074 22.152 25.12L25.662 25.878C25.8691 25.9222 26.0849 25.8996 26.2782 25.8133C26.4716 25.727 26.6326 25.5816 26.738 25.398L29.51 20.6C29.6159 20.4165 29.6607 20.2041 29.6381 19.9935C29.6154 19.7828 29.5265 19.5848 29.384 19.428L26.974 16.764C27.0089 16.2553 27.0089 15.7447 26.974 15.236L29.384 12.572C29.5265 12.4152 29.6154 12.2172 29.6381 12.0065C29.6607 11.7959 29.6159 11.5835 29.51 11.4L26.738 6.6C26.6323 6.41675 26.4712 6.27175 26.2778 6.18586C26.0845 6.09997 25.8689 6.07761 25.662 6.122L22.152 6.88C21.728 6.594 21.284 6.336 20.822 6.11L19.722 2.694C19.6575 2.49309 19.531 2.31776 19.3607 2.1931C19.1904 2.06844 18.9851 2.00085 18.774 2H13.23H13.228ZM13.96 4H18.04L19.176 7.534L19.942 7.908C20.3186 8.09227 20.6821 8.3021 21.03 8.536L21.738 9.016L25.37 8.232L27.41 11.768L24.92 14.524L24.98 15.372C25.0088 15.7902 25.0088 16.2098 24.98 16.628L24.92 17.476L27.414 20.232L25.372 23.768L21.74 22.986L21.032 23.464C20.6841 23.6979 20.3206 23.9077 19.944 24.092L19.178 24.466L18.04 28H13.956L12.816 24.464L12.052 24.092C11.6759 23.9082 11.313 23.6983 10.966 23.464L10.26 22.986L6.62603 23.768L4.58603 20.232L7.07803 17.476L7.01803 16.628C6.9892 16.2092 6.9892 15.7888 7.01803 15.37L7.07803 14.522L4.58403 11.768L6.62603 8.232L10.26 9.012L10.966 8.536C11.313 8.30163 11.6758 8.09178 12.052 7.908L12.816 7.536L13.958 4H13.96ZM16 10C14.4087 10 12.8826 10.6321 11.7574 11.7574C10.6322 12.8826 10 14.4087 10 16C10 17.5913 10.6322 19.1174 11.7574 20.2426C12.8826 21.3679 14.4087 22 16 22C17.5913 22 19.1174 21.3679 20.2427 20.2426C21.3679 19.1174 22 17.5913 22 16C22 14.4087 21.3679 12.8826 20.2427 11.7574C19.1174 10.6321 17.5913 10 16 10ZM16 12C17.0609 12 18.0783 12.4214 18.8285 13.1716C19.5786 13.9217 20 14.9391 20 16C20 17.0609 19.5786 18.0783 18.8285 18.8284C18.0783 19.5786 17.0609 20 16 20C14.9392 20 13.9217 19.5786 13.1716 18.8284C12.4215 18.0783 12 17.0609 12 16C12 14.9391 12.4215 13.9217 13.1716 13.1716C13.9217 12.4214 14.9392 12 16 12Z" fill="#423F3D"/>
</svg>
