<svg width="32" height="32" viewBox="0 0 32 32" fill="none" xmlns="http://www.w3.org/2000/svg">
<rect width="32" height="32" rx="16" fill="#DCDCDC"/>
<path d="M16.3 26H16.2C14.8285 25.9895 13.4729 25.7056 12.2126 25.1647C10.9522 24.6238 9.81244 23.8369 8.86 22.85C7.09384 20.9613 6.08988 18.4853 6.04187 15.8999C5.99385 13.3145 6.90519 10.803 8.6 8.84999C9.69188 7.62633 11.0645 6.68607 12.6 6.10999C12.7792 6.04104 12.9744 6.02513 13.1623 6.06414C13.3503 6.10315 13.5231 6.19544 13.66 6.32999C13.7868 6.45931 13.8761 6.62065 13.9184 6.79677C13.9607 6.9729 13.9543 7.15719 13.9 7.32999C13.352 8.83092 13.2434 10.457 13.587 12.0175C13.9306 13.578 14.7122 15.0081 15.84 16.14C16.9783 17.2643 18.4118 18.0433 19.9745 18.3866C21.5372 18.7299 23.1652 18.6236 24.67 18.08C24.8491 18.0169 25.0425 18.0062 25.2275 18.049C25.4125 18.0918 25.5814 18.1864 25.7146 18.3217C25.8479 18.457 25.9398 18.6274 25.9797 18.8131C26.0196 18.9987 26.0058 19.1919 25.94 19.37C25.4292 20.7337 24.6311 21.9717 23.6 23C22.6408 23.9563 21.5021 24.7136 20.2494 25.2285C18.9966 25.7433 17.6544 26.0055 16.3 26Z" fill="black"/>
</svg>
