<svg width="32" height="32" viewBox="0 0 32 32" fill="none" xmlns="http://www.w3.org/2000/svg">
<rect width="32" height="32" rx="16" fill="#FF7F24"/>
<g clip-path="url(#clip0_747_3670)">
<path d="M14.4 15.6C17.0513 15.6 19.2 13.4509 19.2 10.8C19.2 8.14913 17.0513 6 14.4 6C11.7488 6 9.6 8.14913 9.6 10.8C9.6 13.4509 11.7488 15.6 14.4 15.6ZM16.3013 17.4H12.4988C8.91038 17.4 6 20.31 6 23.8988C6 24.6187 6.582 25.2 7.29975 25.2H21.501C22.2188 25.2 22.8 24.6187 22.8 23.8988C22.8 20.31 19.89 17.4 16.3013 17.4ZM29.1 13.5H27.3V11.7C27.3 11.205 26.8988 10.8 26.4 10.8C25.9013 10.8 25.5 11.2031 25.5 11.7V13.5H23.7C23.205 13.5 22.8 13.905 22.8 14.4C22.8 14.895 23.2031 15.3 23.7 15.3H25.5V17.1C25.5 17.5988 25.905 18 26.4 18C26.895 18 27.3 17.5969 27.3 17.1V15.3H29.1C29.5988 15.3 30 14.8988 30 14.4C30 13.9013 29.5988 13.5 29.1 13.5Z" fill="white"/>
</g>
<defs>
<clipPath id="clip0_747_3670">
<rect width="24" height="19.2" fill="white" transform="translate(6 6)"/>
</clipPath>
</defs>
</svg>
