<svg width="31" height="24" viewBox="0 0 31 24" fill="none" xmlns="http://www.w3.org/2000/svg">
<g clip-path="url(#clip0_541_1524)">
<path d="M16.8064 17.2172V15.15C15.7142 14.5641 14.4908 14.25 13.1924 14.25H8.43923C3.95189 14.25 0.315796 17.8898 0.315796 22.3781C0.315796 23.2734 1.0433 24 1.94048 24H19.692C20.248 24 20.7149 23.703 21.0078 23.2767L18.118 20.3906C17.2705 19.5422 16.8064 18.4172 16.8064 17.2172ZM10.8158 12C14.1299 12 16.8158 9.31359 16.8158 6C16.8158 2.68641 14.1299 0 10.8158 0C7.50173 0 4.8158 2.68641 4.8158 6C4.8158 9.31359 7.50173 12 10.8158 12ZM29.8752 17.1L25.6424 12.8812C25.0799 12.3187 24.3158 12 23.5189 12H19.805C19.6079 11.9994 19.4126 12.0378 19.2304 12.113C19.0481 12.1882 18.8826 12.2986 18.7432 12.438C18.6038 12.5775 18.4934 12.7431 18.4183 12.9253C18.3432 13.1076 18.3048 13.3029 18.3055 13.5L18.3062 17.2125C18.3062 18.0094 18.6178 18.7664 19.1804 19.3289L23.4137 23.5603C23.9996 24.1462 24.9484 24.1462 25.5343 23.5603L29.8698 19.2244C30.4611 18.6375 30.4611 17.6859 29.8752 17.1ZM21.3064 16.1203C20.6853 16.1203 20.1814 15.6225 20.1814 14.9953C20.1814 14.3742 20.6853 13.8703 21.3064 13.8703C21.9336 13.8703 22.4314 14.3742 22.4314 14.9953C22.4314 15.6164 21.9299 16.1203 21.3064 16.1203Z" fill="#1478D6"/>
</g>
<defs>
<clipPath id="clip0_541_1524">
<rect width="30" height="24" fill="white" transform="translate(0.315796)"/>
</clipPath>
</defs>
</svg>
