<svg width="24" height="24" viewBox="0 0 24 24" fill="none" xmlns="http://www.w3.org/2000/svg">
<path d="M6.3125 15.3125L8.6875 17.6875L7.875 18.5H7V17H5.5V16.125L6.3125 15.3125ZM12.7812 9.21875C12.9271 9.35417 12.9115 9.51042 12.7344 9.6875L8.1875 14.2344C8.01042 14.4115 7.85417 14.4271 7.71875 14.2812C7.57292 14.1458 7.58854 13.9896 7.76562 13.8125L12.3125 9.26562C12.4896 9.08854 12.6458 9.07292 12.7812 9.21875ZM8.5 20L17 11.5L12.5 7L4 15.5V20H8.5ZM18 10.5L19.4375 9.0625C19.7292 8.77083 19.875 8.41667 19.875 8C19.875 7.58333 19.7292 7.22917 19.4375 6.9375L17.0625 4.5625C16.7708 4.27083 16.4167 4.125 16 4.125C15.5833 4.125 15.2292 4.27083 14.9375 4.5625L13.5 6L18 10.5ZM24 4.5V19.5C24 20.7396 23.5599 21.7995 22.6797 22.6797C21.7995 23.5599 20.7396 24 19.5 24H4.5C3.26042 24 2.20052 23.5599 1.32031 22.6797C0.440104 21.7995 0 20.7396 0 19.5V4.5C0 3.26042 0.440104 2.20052 1.32031 1.32031C2.20052 0.440104 3.26042 0 4.5 0H19.5C20.7396 0 21.7995 0.440104 22.6797 1.32031C23.5599 2.20052 24 3.26042 24 4.5Z" fill="black"/>
</svg>
