<svg width="28" height="28" viewBox="0 0 28 28" fill="none" xmlns="http://www.w3.org/2000/svg">
<path d="M8.07255 5.14789L9.07489 4.6269C10.0149 4.13892 11.1655 4.47014 11.7634 5.40044L12.9539 7.25382C13.4719 8.06086 13.4425 9.12007 12.8816 9.87175L11.3179 11.9643C11.6151 13.005 12.151 13.9876 12.9244 14.9121C13.6621 15.8084 14.5721 16.5476 15.6006 17.0859L17.7153 15.952C18.5163 15.5233 19.4988 15.6906 20.1505 16.3672L21.6718 17.9426C22.4308 18.7296 22.5321 19.9764 21.9096 20.8604L21.2432 21.8077C20.5791 22.7506 19.4831 23.24 18.3667 23.0906C15.7294 22.7395 13.0324 20.8168 10.272 17.3233C7.50753 13.8244 6.20331 10.6756 6.36099 7.88065C6.42708 6.70454 7.07759 5.66457 8.07255 5.14789Z" fill="#252322"/>
</svg>
