<svg width="32" height="32" viewBox="0 0 32 32" fill="none" xmlns="http://www.w3.org/2000/svg">
<path d="M21.3333 2.66666C22.8907 2.66629 24.4144 3.1205 25.7173 3.97359C27.0203 4.82667 28.0459 6.04153 28.6684 7.46912C29.2909 8.89671 29.4832 10.4749 29.2216 12.0102C28.9601 13.5455 28.2561 14.9711 27.196 16.112L26.9427 16.3707L15.3067 28.0067L15.236 28.0733L15.1613 28.1333C14.2134 28.9505 12.9917 29.3792 11.7411 29.3336C10.4904 29.288 9.3032 28.7715 8.41733 27.8875C7.53147 27.0034 7.01241 25.8173 6.9642 24.5667C6.91598 23.3162 7.34215 22.0936 8.15732 21.144L8.35599 20.9253L8.37599 20.9107L18.096 11.172C18.3458 10.9216 18.6849 10.7808 19.0386 10.7804C19.3923 10.78 19.7316 10.9202 19.982 11.17C20.2323 11.4198 20.3732 11.7589 20.3736 12.1126C20.374 12.4663 20.2338 12.8056 19.984 13.056L10.264 22.7947L10.248 22.8053C9.85567 23.2243 9.63461 23.775 9.62839 24.3489C9.62218 24.9229 9.83127 25.4783 10.2144 25.9056C10.5976 26.333 11.127 26.6012 11.6982 26.6574C12.2693 26.7136 12.8409 26.5538 13.3 26.2093L13.4627 26.076L13.464 26.0773L25.0667 14.4773L25.2787 14.2573C26.2121 13.2313 26.7091 11.8819 26.6642 10.4955C26.6193 9.10904 26.0359 7.79468 25.038 6.83122C24.04 5.86777 22.7059 5.33105 21.3188 5.33493C19.9316 5.3388 18.6006 5.88298 17.608 6.852L17.4013 7.06533L17.3773 7.08133L4.94265 19.5213C4.81877 19.6451 4.67172 19.7433 4.5099 19.8103C4.34807 19.8772 4.17465 19.9117 3.99951 19.9116C3.82438 19.9115 3.65098 19.877 3.4892 19.8099C3.32743 19.7428 3.18044 19.6445 3.05665 19.5207C2.93286 19.3968 2.83468 19.2497 2.76772 19.0879C2.70075 18.9261 2.66632 18.7527 2.66638 18.5775C2.66651 18.2238 2.80713 17.8847 3.05732 17.6347L15.4693 5.21733L15.5307 5.16C16.2775 4.37127 17.1774 3.74331 18.1754 3.31458C19.1734 2.88585 20.2485 2.66538 21.3347 2.66666H21.3333Z" fill="#423F3D"/>
</svg>
