<svg width="32" height="32" viewBox="0 0 32 32" fill="none" xmlns="http://www.w3.org/2000/svg">
<path d="M4.41925 3.16915L28.4228 14.6857C28.6654 14.8019 28.8703 14.9847 29.0137 15.2128C29.1571 15.441 29.2332 15.7052 29.2332 15.9749C29.2332 16.2446 29.1571 16.5088 29.0137 16.7369C28.8703 16.965 28.6654 17.1478 28.4228 17.264L4.41925 28.7806C4.17318 28.8988 3.89843 28.9436 3.62769 28.9097C3.35695 28.8758 3.10162 28.7646 2.89208 28.5893C2.68254 28.414 2.5276 28.182 2.44571 27.9209C2.36382 27.6599 2.35842 27.3807 2.43016 27.1166L4.83165 18.2846C4.86105 18.1763 4.92155 18.0792 5.00563 18.0052C5.0897 17.9312 5.19362 17.8837 5.30443 17.8686L16.936 16.2834C16.9846 16.2765 17.0306 16.2571 17.0695 16.227C17.1084 16.197 17.1389 16.1574 17.1581 16.112L17.1786 16.0412C17.1876 15.9773 17.1748 15.9124 17.1423 15.8568C17.1099 15.8012 17.0596 15.7582 16.9998 15.7349L16.9371 15.7177L5.31696 14.1326C5.20636 14.1172 5.10268 14.0696 5.01883 13.9957C4.93498 13.9217 4.87464 13.8247 4.84532 13.7166L2.43016 4.83429C2.35813 4.57014 2.36331 4.29078 2.44508 4.02949C2.52684 3.76821 2.68175 3.536 2.89135 3.36054C3.10095 3.18508 3.35641 3.07375 3.62729 3.03982C3.89818 3.00589 4.17308 3.05078 4.41925 3.16915Z" fill="#FF6B00"/>
</svg>
