<svg width="32" height="32" viewBox="0 0 32 32" fill="none" xmlns="http://www.w3.org/2000/svg">
<path d="M16 2.664C8.63466 2.664 2.664 8.63467 2.664 16C2.664 23.364 8.63466 29.3333 16 29.3333C23.3653 29.3347 29.336 23.364 29.336 16C29.336 8.63467 23.3653 2.664 16 2.664ZM16 4.664C17.4989 4.64774 18.9862 4.92893 20.3757 5.4913C21.7652 6.05366 23.0294 6.88603 24.0951 7.94022C25.1608 8.99442 26.0068 10.2495 26.5842 11.6329C27.1616 13.0162 27.4589 14.5003 27.4589 15.9993C27.4589 17.4983 27.1616 18.9825 26.5842 20.3658C26.0068 21.7492 25.1608 23.0042 24.0951 24.0584C23.0294 25.1126 21.7652 25.945 20.3757 26.5074C18.9862 27.0697 17.4989 27.3509 16 27.3347C13.015 27.3023 10.1632 26.0938 8.06383 23.9715C5.96445 21.8492 4.78694 18.9845 4.78694 15.9993C4.78694 13.0141 5.96445 10.1494 8.06383 8.02716C10.1632 5.90489 13.015 4.69638 16 4.664ZM20.7173 19.7107C20.1561 20.425 19.4398 21.0024 18.6225 21.399C17.8052 21.7956 16.9084 22.0011 16 22C15.0925 22.0011 14.1967 21.796 13.3802 21.4001C12.5637 21.0041 11.8478 20.4278 11.2867 19.7147C11.2052 19.6116 11.1043 19.5256 10.9897 19.4616C10.875 19.3975 10.7489 19.3567 10.6184 19.3414C10.488 19.3261 10.3558 19.3367 10.2295 19.3725C10.1031 19.4083 9.98504 19.4686 9.882 19.55C9.77896 19.6314 9.69296 19.7323 9.62891 19.847C9.56487 19.9616 9.52404 20.0878 9.50875 20.2182C9.49346 20.3487 9.50401 20.4808 9.5398 20.6072C9.57559 20.7336 9.63591 20.8516 9.71733 20.9547C10.4657 21.9048 11.42 22.6726 12.5083 23.2001C13.5967 23.7276 14.7906 24.0011 16 24C17.211 24.001 18.4064 23.7266 19.4957 23.1977C20.5851 22.6687 21.5399 21.899 22.288 20.9467C22.3728 20.8439 22.4361 20.7252 22.4744 20.5976C22.5127 20.47 22.5251 20.3361 22.5108 20.2036C22.4966 20.0712 22.4561 19.9429 22.3916 19.8264C22.3271 19.7098 22.24 19.6073 22.1354 19.5249C22.0307 19.4424 21.9107 19.3817 21.7823 19.3463C21.6538 19.3109 21.5196 19.3016 21.3875 19.3187C21.2554 19.3359 21.1281 19.3793 21.013 19.4464C20.8979 19.5135 20.7974 19.6029 20.7173 19.7093V19.7107ZM20 11.6667C19.7773 11.6604 19.5555 11.6988 19.3479 11.7797C19.1402 11.8606 18.9509 11.9823 18.7911 12.1376C18.6314 12.2929 18.5043 12.4787 18.4176 12.684C18.3309 12.8893 18.2862 13.1098 18.2862 13.3327C18.2862 13.5555 18.3309 13.7761 18.4176 13.9813C18.5043 14.1866 18.6314 14.3724 18.7911 14.5277C18.9509 14.6831 19.1402 14.8048 19.3479 14.8857C19.5555 14.9665 19.7773 15.005 20 14.9987C20.4337 14.9864 20.8455 14.8055 21.1479 14.4944C21.4503 14.1833 21.6195 13.7665 21.6195 13.3327C21.6195 12.8988 21.4503 12.482 21.1479 12.1709C20.8455 11.8598 20.4337 11.6789 20 11.6667ZM12 11.6667C11.7773 11.6604 11.5555 11.6988 11.3479 11.7797C11.1402 11.8606 10.9509 11.9823 10.7911 12.1376C10.6314 12.2929 10.5043 12.4787 10.4176 12.684C10.3309 12.8893 10.2862 13.1098 10.2862 13.3327C10.2862 13.5555 10.3309 13.7761 10.4176 13.9813C10.5043 14.1866 10.6314 14.3724 10.7911 14.5277C10.9509 14.6831 11.1402 14.8048 11.3479 14.8857C11.5555 14.9665 11.7773 15.005 12 14.9987C12.4337 14.9864 12.8455 14.8055 13.1479 14.4944C13.4503 14.1833 13.6195 13.7665 13.6195 13.3327C13.6195 12.8988 13.4503 12.482 13.1479 12.1709C12.8455 11.8598 12.4337 11.6789 12 11.6667Z" fill="url(#paint0_linear_15_157)"/>
<defs>
<linearGradient id="paint0_linear_15_157" x1="16" y1="2.664" x2="16" y2="29.3333" gradientUnits="userSpaceOnUse">
<stop stop-color="#FEB682"/>
<stop offset="1" stop-color="#F37418"/>
</linearGradient>
</defs>
</svg>
