<svg width="32" height="32" viewBox="0 0 32 32" fill="none" xmlns="http://www.w3.org/2000/svg">
<rect width="32" height="32" rx="16" fill="#DCDCDC"/>
<path d="M16.013 6.25C16.747 6.258 17.478 6.343 18.194 6.503C18.3465 6.53705 18.4846 6.6179 18.589 6.73426C18.6933 6.85062 18.7587 6.99667 18.776 7.152L18.946 8.679C18.9699 8.89441 19.0442 9.10119 19.1627 9.28268C19.2811 9.46416 19.4406 9.61528 19.6282 9.72386C19.8158 9.83244 20.0262 9.89545 20.2426 9.9078C20.459 9.92016 20.6753 9.88152 20.874 9.795L22.274 9.18C22.4162 9.11735 22.5744 9.10044 22.7267 9.13161C22.879 9.16278 23.0178 9.24049 23.124 9.354C24.1359 10.4351 24.8895 11.7316 25.328 13.146C25.374 13.2946 25.3726 13.4539 25.324 13.6017C25.2755 13.7495 25.1822 13.8786 25.057 13.971L23.815 14.887C23.6402 15.0152 23.4981 15.1829 23.4002 15.3763C23.3022 15.5697 23.2513 15.7835 23.2514 16.0003C23.2515 16.217 23.3026 16.4308 23.4007 16.6241C23.4988 16.8174 23.6411 16.9849 23.816 17.113L25.059 18.028C25.1844 18.1205 25.2778 18.2497 25.3264 18.3977C25.3749 18.5458 25.3762 18.7052 25.33 18.854C24.8916 20.2682 24.1384 21.5647 23.127 22.646C23.021 22.7595 22.8824 22.8372 22.7303 22.8686C22.5783 22.8999 22.4202 22.8833 22.278 22.821L20.872 22.204C20.6735 22.1168 20.4573 22.0776 20.2409 22.0895C20.0245 22.1015 19.8139 22.1642 19.6262 22.2727C19.4385 22.3812 19.2791 22.5324 19.1607 22.714C19.0424 22.8956 18.9685 23.1025 18.945 23.318L18.776 24.844C18.759 24.9976 18.6949 25.1423 18.5925 25.2581C18.4901 25.3739 18.3544 25.4553 18.204 25.491C16.7559 25.8355 15.2471 25.8355 13.799 25.491C13.6486 25.4553 13.5129 25.3739 13.4105 25.2581C13.3081 25.1423 13.244 24.9976 13.227 24.844L13.057 23.32C13.0324 23.1054 12.9579 22.8996 12.8394 22.7191C12.7208 22.5385 12.5617 22.3883 12.3746 22.2803C12.1875 22.1724 11.9778 22.1098 11.7622 22.0976C11.5465 22.0854 11.3311 22.1239 11.133 22.21L9.726 22.826C9.58378 22.8883 9.42572 22.9049 9.27365 22.8736C9.12158 22.8422 8.98299 22.7645 8.877 22.651C7.86507 21.5685 7.11184 20.2706 6.674 18.855C6.62779 18.7062 6.62905 18.5468 6.67762 18.3987C6.72618 18.2507 6.81963 18.1215 6.945 18.029L8.189 17.113C8.36384 16.9848 8.50603 16.8173 8.60405 16.6239C8.70206 16.4305 8.75313 16.2168 8.75313 16C8.75313 15.7832 8.70206 15.5695 8.60405 15.3761C8.50603 15.1827 8.36384 15.0152 8.189 14.887L6.946 13.973C6.82046 13.8806 6.72681 13.7515 6.67806 13.6034C6.62931 13.4554 6.62789 13.2959 6.674 13.147C7.11281 11.7325 7.86672 10.436 8.879 9.355C8.98511 9.2417 9.12376 9.16412 9.27582 9.13296C9.42789 9.10179 9.58587 9.11858 9.728 9.181L11.128 9.796C11.327 9.88227 11.5435 9.92066 11.76 9.90809C11.9766 9.89551 12.1872 9.83232 12.3749 9.7236C12.5626 9.61487 12.7221 9.46363 12.8408 9.28204C12.9594 9.10045 13.0338 8.89356 13.058 8.678L13.228 7.152C13.2452 6.99635 13.3106 6.84998 13.4152 6.73341C13.5197 6.61684 13.6581 6.53592 13.811 6.502C14.529 6.343 15.261 6.259 16.013 6.25ZM16 13C15.2043 13 14.4413 13.3161 13.8787 13.8787C13.3161 14.4413 13 15.2044 13 16C13 16.7956 13.3161 17.5587 13.8787 18.1213C14.4413 18.6839 15.2043 19 16 19C16.7956 19 17.5587 18.6839 18.1213 18.1213C18.6839 17.5587 19 16.7956 19 16C19 15.2044 18.6839 14.4413 18.1213 13.8787C17.5587 13.3161 16.7956 13 16 13Z" fill="black"/>
</svg>
