<svg width="33" height="24" viewBox="0 0 33 24" fill="none" xmlns="http://www.w3.org/2000/svg">
<g clip-path="url(#clip0_13_184)">
<path d="M32.25 0H0V24H32.25V0ZM30.2344 2V22H2.01562V2H30.2344ZM28.2067 20.054C28.2067 20.054 26.1104 6.008 22.9973 6.008C19.8841 6.008 18.5206 15.916 16.0172 15.916C13.5138 15.916 13.7012 12.045 11.869 12.045C10.0368 12.045 3.72588 20.055 3.72588 20.055L28.2067 20.054ZM7.05469 10C7.45173 10 7.84489 9.9224 8.21171 9.77164C8.57853 9.62087 8.91183 9.3999 9.19258 9.12132C9.47333 8.84274 9.69604 8.51203 9.84798 8.14805C9.99992 7.78407 10.0781 7.39397 10.0781 7C10.0781 6.60603 9.99992 6.21593 9.84798 5.85195C9.69604 5.48797 9.47333 5.15726 9.19258 4.87868C8.91183 4.6001 8.57853 4.37913 8.21171 4.22836C7.84489 4.0776 7.45173 4 7.05469 4C6.25282 4 5.4838 4.31607 4.91679 4.87868C4.34979 5.44129 4.03125 6.20435 4.03125 7C4.03125 7.79565 4.34979 8.55871 4.91679 9.12132C5.4838 9.68393 6.25282 10 7.05469 10Z" fill="url(#paint0_linear_13_184)"/>
</g>
<defs>
<linearGradient id="paint0_linear_13_184" x1="16.125" y1="0" x2="16.125" y2="24" gradientUnits="userSpaceOnUse">
<stop stop-color="#FEB682"/>
<stop offset="1" stop-color="#F37418"/>
</linearGradient>
<clipPath id="clip0_13_184">
<rect width="32.25" height="24" fill="white"/>
</clipPath>
</defs>
</svg>
