<svg width="17" height="24" viewBox="0 0 17 24" fill="none" xmlns="http://www.w3.org/2000/svg">
<path d="M8.3158 0C3.89294 0 0.315796 3.756 0.315796 8.4C0.315796 14.7 8.3158 24 8.3158 24C8.3158 24 16.3158 14.7 16.3158 8.4C16.3158 3.756 12.7387 0 8.3158 0ZM8.3158 11.4C7.55803 11.4 6.83131 11.0839 6.29549 10.5213C5.75967 9.95871 5.45865 9.19565 5.45865 8.4C5.45865 7.60435 5.75967 6.84129 6.29549 6.27868C6.83131 5.71607 7.55803 5.4 8.3158 5.4C9.07356 5.4 9.80028 5.71607 10.3361 6.27868C10.8719 6.84129 11.1729 7.60435 11.1729 8.4C11.1729 9.19565 10.8719 9.95871 10.3361 10.5213C9.80028 11.0839 9.07356 11.4 8.3158 11.4Z" fill="#FF3535"/>
</svg>
