<svg width="12" height="12" viewBox="0 0 12 12" fill="none" xmlns="http://www.w3.org/2000/svg">
<path d="M6 0C2.686 0 0 2.686 0 6C0 9.314 2.686 12 6 12C9.314 12 12 9.314 12 6C12 2.686 9.314 0 6 0ZM7.33333 1.33333C7.33333 2 7 2.66667 6.33333 2.66667C5.66667 2.66667 5.33333 3.33333 5.33333 4V6C5.33333 6 6 6 6 4C6 3.82319 6.07024 3.65362 6.19526 3.5286C6.32029 3.40357 6.48986 3.33333 6.66667 3.33333C6.84348 3.33333 7.01305 3.40357 7.13807 3.5286C7.2631 3.65362 7.33333 3.82319 7.33333 4V6C7.20148 6 7.07259 6.0391 6.96295 6.11235C6.85332 6.18561 6.76787 6.28973 6.71741 6.41154C6.66696 6.53336 6.65375 6.66741 6.67948 6.79673C6.7052 6.92605 6.76869 7.04484 6.86193 7.13807C6.95516 7.23131 7.07395 7.2948 7.20327 7.32052C7.33259 7.34625 7.46664 7.33305 7.58846 7.28259C7.71027 7.23213 7.81439 7.14668 7.88765 7.03705C7.9609 6.92741 8 6.79852 8 6.66667H8.66667V5.33333L9.33333 6L8.66667 6.66667C8.66667 8.66667 8.66667 8.66667 7.33333 9.33333C7.33333 8.66667 6.66667 8.66667 5.33333 8.66667V7.33333L4 6V4.66667C3.33333 4.66667 3.33333 5.33333 3.33333 5.33333L2.95933 4.95933L1.366 3.366C1.43933 3.238 1.516 3.11133 1.59933 2.99L1.948 2.538C2.44747 1.95111 3.06853 1.47979 3.76818 1.15667C4.46783 0.833555 5.22934 0.666361 6 0.666667C6.45001 0.668756 6.89797 0.727439 7.33333 0.841333V1.33333Z" fill="#252322"/>
</svg>
