<svg width="31" height="24" viewBox="0 0 31 24" fill="none" xmlns="http://www.w3.org/2000/svg">
<path d="M29.2331 0H1.08271C0.483835 0 0 0.4875 0 1.09091V22.9091C0 23.5125 0.483835 24 1.08271 24H29.2331C29.832 24 30.3158 23.5125 30.3158 22.9091V1.09091C30.3158 0.4875 29.832 0 29.2331 0ZM9.27068 4.90909C10.465 4.90909 11.4361 5.8875 11.4361 7.09091C11.4361 8.29432 10.465 9.27273 9.27068 9.27273C8.07632 9.27273 7.10526 8.29432 7.10526 7.09091C7.10526 5.8875 8.07632 4.90909 9.27068 4.90909ZM26.6583 19.8102C26.609 19.8519 26.5467 19.8749 26.4823 19.875H3.83008C3.6812 19.875 3.5594 19.7523 3.5594 19.6023C3.5594 19.5375 3.58308 19.4761 3.62368 19.425L9.38571 12.5386C9.48045 12.4227 9.65301 12.4091 9.76805 12.5045C9.7782 12.5148 9.79173 12.525 9.80188 12.5386L13.165 16.5614L18.5143 10.1693C18.609 10.0534 18.7816 10.0398 18.8966 10.1352C18.9068 10.1455 18.9203 10.1557 18.9305 10.1693L26.6989 19.4284C26.7868 19.5409 26.7733 19.7148 26.6583 19.8102Z" fill="#2EC83D"/>
</svg>
