<svg width="25" height="18" viewBox="0 0 25 18" fill="none" xmlns="http://www.w3.org/2000/svg">
<path d="M17.0194 0C17.3088 0 17.5862 0.118527 17.7908 0.329505C17.9954 0.540483 18.1103 0.826631 18.1103 1.125V5.85L23.7972 1.74375C23.879 1.68464 23.975 1.64981 24.0746 1.64306C24.1743 1.63632 24.2738 1.65791 24.3624 1.70549C24.4509 1.75308 24.5251 1.82482 24.5769 1.9129C24.6286 2.00098 24.6559 2.10202 24.6558 2.205V15.795C24.6559 15.898 24.6286 15.999 24.5769 16.0871C24.5251 16.1752 24.4509 16.2469 24.3624 16.2945C24.2738 16.3421 24.1743 16.3637 24.0746 16.3569C23.975 16.3502 23.879 16.3154 23.7972 16.2563L18.1103 12.15V16.875C18.1103 17.1734 17.9954 17.4595 17.7908 17.6705C17.5862 17.8815 17.3088 18 17.0194 18H1.7467C1.45737 18 1.1799 17.8815 0.975312 17.6705C0.770727 17.4595 0.655792 17.1734 0.655792 16.875V1.125C0.655792 0.826631 0.770727 0.540483 0.975312 0.329505C1.1799 0.118527 1.45737 0 1.7467 0H17.0194ZM7.63761 5.43263C7.53702 5.4326 7.4395 5.46843 7.36158 5.53403C7.28365 5.59963 7.23009 5.69098 7.20997 5.79263L7.20125 5.8815V12.1163C7.20124 12.1891 7.21839 12.2609 7.25123 12.3254C7.28407 12.39 7.33162 12.4453 7.38978 12.4867C7.44794 12.5281 7.51498 12.5543 7.58514 12.563C7.65529 12.5718 7.72646 12.5629 7.79252 12.537L7.87216 12.4965L12.6231 9.378C12.6785 9.34143 12.7252 9.2924 12.7597 9.23458C12.7941 9.17677 12.8154 9.11166 12.8221 9.04414C12.8287 8.97662 12.8204 8.90843 12.7978 8.84468C12.7753 8.78093 12.739 8.72326 12.6918 8.676L12.6231 8.61975L7.87216 5.50125C7.80177 5.45625 7.72042 5.43284 7.63761 5.43375V5.43263Z" fill="#FF1167"/>
</svg>
