<svg width="28" height="28" viewBox="0 0 28 28" fill="none" xmlns="http://www.w3.org/2000/svg">
<g clip-path="url(#clip0_540_1513)">
<rect x="2" y="2" width="24" height="24" rx="8" fill="url(#paint0_angular_540_1513)"/>
<path d="M9.58594 9.14062L6.1875 19H4.13281L8.41406 7.625H9.72656L9.58594 9.14062ZM12.4297 19L9.02344 9.14062L8.875 7.625H10.1953L14.4922 19H12.4297ZM12.2656 14.7812V16.3359H6.07812V14.7812H12.2656ZM20.3438 17.3047V13.2734C20.3438 12.9714 20.2891 12.7109 20.1797 12.4922C20.0703 12.2734 19.9036 12.1042 19.6797 11.9844C19.4609 11.8646 19.1849 11.8047 18.8516 11.8047C18.5443 11.8047 18.2786 11.8568 18.0547 11.9609C17.8307 12.0651 17.6562 12.2057 17.5312 12.3828C17.4062 12.5599 17.3438 12.7604 17.3438 12.9844H15.4688C15.4688 12.651 15.5495 12.3281 15.7109 12.0156C15.8724 11.7031 16.1068 11.4245 16.4141 11.1797C16.7214 10.9349 17.0885 10.7422 17.5156 10.6016C17.9427 10.4609 18.4219 10.3906 18.9531 10.3906C19.5885 10.3906 20.151 10.4974 20.6406 10.7109C21.1354 10.9245 21.5234 11.2474 21.8047 11.6797C22.0911 12.1068 22.2344 12.6432 22.2344 13.2891V17.0469C22.2344 17.4323 22.2604 17.7786 22.3125 18.0859C22.3698 18.388 22.4505 18.651 22.5547 18.875V19H20.625C20.5365 18.7969 20.4661 18.5391 20.4141 18.2266C20.3672 17.9089 20.3438 17.6016 20.3438 17.3047ZM20.6172 13.8594L20.6328 15.0234H19.2812C18.9323 15.0234 18.625 15.0573 18.3594 15.125C18.0938 15.1875 17.8724 15.2812 17.6953 15.4062C17.5182 15.5312 17.3854 15.6823 17.2969 15.8594C17.2083 16.0365 17.1641 16.237 17.1641 16.4609C17.1641 16.6849 17.2161 16.8906 17.3203 17.0781C17.4245 17.2604 17.5755 17.4036 17.7734 17.5078C17.9766 17.612 18.2214 17.6641 18.5078 17.6641C18.8932 17.6641 19.2292 17.5859 19.5156 17.4297C19.8073 17.2682 20.0365 17.0729 20.2031 16.8438C20.3698 16.6094 20.4583 16.388 20.4688 16.1797L21.0781 17.0156C21.0156 17.2292 20.9089 17.4583 20.7578 17.7031C20.6068 17.9479 20.4089 18.1823 20.1641 18.4062C19.9245 18.625 19.6354 18.8047 19.2969 18.9453C18.9635 19.0859 18.5781 19.1562 18.1406 19.1562C17.5885 19.1562 17.0964 19.0469 16.6641 18.8281C16.2318 18.6042 15.8932 18.3047 15.6484 17.9297C15.4036 17.5495 15.2812 17.1198 15.2812 16.6406C15.2812 16.1927 15.3646 15.7969 15.5312 15.4531C15.7031 15.1042 15.9531 14.8125 16.2812 14.5781C16.6146 14.3438 17.0208 14.1667 17.5 14.0469C17.9792 13.9219 18.526 13.8594 19.1406 13.8594H20.6172Z" fill="white"/>
</g>
<rect x="1" y="1" width="26" height="26" rx="9" stroke="#E2E2E2" stroke-width="2"/>
<defs>
<radialGradient id="paint0_angular_540_1513" cx="0" cy="0" r="1" gradientUnits="userSpaceOnUse" gradientTransform="translate(14 14) rotate(90) scale(12)">
<stop offset="0.0416667" stop-color="#EBFF00"/>
<stop offset="0.28125" stop-color="#001AFF"/>
<stop offset="0.46875" stop-color="#24FF00"/>
<stop offset="0.677083" stop-color="#FF0017"/>
<stop offset="0.895833" stop-color="#DB00FF"/>
</radialGradient>
<clipPath id="clip0_540_1513">
<rect x="2" y="2" width="24" height="24" rx="8" fill="white"/>
</clipPath>
</defs>
</svg>
