<svg width="32" height="32" viewBox="0 0 32 32" fill="none" xmlns="http://www.w3.org/2000/svg">
<path d="M24 10.6667H13.3334V8.00001H24V10.6667ZM29.3334 5.33334V16L21.3334 24H10.6667C9.95944 24 9.28117 23.7191 8.78107 23.219C8.28097 22.7189 8.00002 22.0406 8.00002 21.3333V5.33334C8.00002 4.62609 8.28097 3.94782 8.78107 3.44772C9.28117 2.94762 9.95944 2.66667 10.6667 2.66667H26.6667C27.3739 2.66667 28.0522 2.94762 28.5523 3.44772C29.0524 3.94782 29.3334 4.62609 29.3334 5.33334ZM26.6667 5.33334H10.6667V21.3333H18.6667V16C18.6667 15.2928 18.9476 14.6145 19.4477 14.1144C19.9478 13.6143 20.6261 13.3333 21.3334 13.3333H26.6667V5.33334ZM5.33335 8.00001C4.62611 8.00001 3.94783 8.28096 3.44774 8.78105C2.94764 9.28115 2.66669 9.95943 2.66669 10.6667V26.6667C2.66669 28.1333 3.86669 29.3333 5.33335 29.3333H21.3334C22.0406 29.3333 22.7189 29.0524 23.219 28.5523C23.7191 28.0522 24 27.3739 24 26.6667H5.33335V8.00001Z" fill="url(#paint0_linear_22_332)"/>
<defs>
<linearGradient id="paint0_linear_22_332" x1="16" y1="2.66667" x2="16" y2="29.3333" gradientUnits="userSpaceOnUse">
<stop stop-color="#FF7A1A"/>
<stop offset="1" stop-color="#DF6A15"/>
</linearGradient>
</defs>
</svg>
