<svg width="36" height="36" viewBox="0 0 36 36" fill="none" xmlns="http://www.w3.org/2000/svg">
<circle cx="18" cy="18" r="18" fill="#F2F2F2"/>
<path d="M18.0001 28C19.1001 28 20.0001 27.1 20.0001 26H16.0001C16.0001 26.5304 16.2108 27.0391 16.5858 27.4142C16.9609 27.7893 17.4696 28 18.0001 28ZM24.0001 22V17C24.0001 13.93 22.3601 11.36 19.5001 10.68V10C19.5001 9.17 18.8301 8.5 18.0001 8.5C17.1701 8.5 16.5001 9.17 16.5001 10V10.68C13.6301 11.36 12.0001 13.92 12.0001 17V22L10.7101 23.29C10.0801 23.92 10.5201 25 11.4101 25H24.5801C25.4701 25 25.9201 23.92 25.2901 23.29L24.0001 22Z" fill="#252322"/>
</svg>
