<svg width="32" height="32" viewBox="0 0 32 32" fill="none" xmlns="http://www.w3.org/2000/svg">
<path d="M20.8712 24.0021L20.2106 18.7128C20.117 17.9636 19.7529 17.2744 19.1868 16.7748C18.6207 16.2753 17.8915 15.9997 17.1365 16H14.8614C14.1068 16.0002 13.3782 16.276 12.8125 16.7755C12.2468 17.275 11.883 17.9639 11.7894 18.7128L11.1278 24.0021C11.0914 24.2927 11.1174 24.5877 11.2038 24.8675C11.2902 25.1473 11.4352 25.4055 11.6291 25.6249C11.823 25.8444 12.0614 26.0201 12.3284 26.1404C12.5954 26.2607 12.885 26.3228 13.1778 26.3226H18.8222C19.115 26.3226 19.4044 26.2604 19.6713 26.1401C19.9382 26.0198 20.1764 25.844 20.3702 25.6246C20.564 25.4051 20.7089 25.1469 20.7953 24.8672C20.8816 24.5875 20.9075 24.2926 20.8712 24.0021V24.0021Z" stroke="url(#paint0_linear_3_119)" stroke-width="2" stroke-linecap="round" stroke-linejoin="round"/>
<path d="M16 11.871C17.7103 11.871 19.0968 10.4845 19.0968 8.7742C19.0968 7.0639 17.7103 5.67743 16 5.67743C14.2897 5.67743 12.9032 7.0639 12.9032 8.7742C12.9032 10.4845 14.2897 11.871 16 11.871Z" stroke="url(#paint1_linear_3_119)" stroke-width="2"/>
<path d="M7.74193 14.9677C8.88213 14.9677 9.80645 14.0434 9.80645 12.9032C9.80645 11.763 8.88213 10.8387 7.74193 10.8387C6.60173 10.8387 5.67741 11.763 5.67741 12.9032C5.67741 14.0434 6.60173 14.9677 7.74193 14.9677Z" stroke="url(#paint2_linear_3_119)" stroke-width="2"/>
<path d="M24.2581 14.9677C25.3983 14.9677 26.3226 14.0434 26.3226 12.9032C26.3226 11.763 25.3983 10.8387 24.2581 10.8387C23.1179 10.8387 22.1935 11.763 22.1935 12.9032C22.1935 14.0434 23.1179 14.9677 24.2581 14.9677Z" stroke="url(#paint3_linear_3_119)" stroke-width="2"/>
<path d="M7.74193 18.0645H7.42606C6.93735 18.0645 6.46446 18.2378 6.09153 18.5536C5.7186 18.8695 5.46981 19.3074 5.38941 19.7894L5.04567 21.8539C4.99634 22.1497 5.01204 22.4527 5.09168 22.7418C5.17132 23.0309 5.31298 23.2992 5.50681 23.528C5.70064 23.7568 5.942 23.9407 6.21408 24.0667C6.48616 24.1928 6.78244 24.2581 7.08232 24.2581H10.8387M24.2581 18.0645H24.5739C25.0626 18.0645 25.5355 18.2378 25.9085 18.5536C26.2814 18.8695 26.5302 19.3074 26.6106 19.7894L26.9543 21.8539C27.0036 22.1497 26.9879 22.4527 26.9083 22.7418C26.8287 23.0309 26.687 23.2992 26.4932 23.528C26.2993 23.7568 26.058 23.9407 25.7859 24.0667C25.5138 24.1928 25.2175 24.2581 24.9177 24.2581H21.1613" stroke="url(#paint4_linear_3_119)" stroke-width="2" stroke-linecap="round" stroke-linejoin="round"/>
<circle cx="16" cy="16" r="15" stroke="url(#paint5_linear_3_119)" stroke-width="2"/>
<defs>
<linearGradient id="paint0_linear_3_119" x1="15.9995" y1="16" x2="15.9995" y2="26.3226" gradientUnits="userSpaceOnUse">
<stop stop-color="#FF7A1A"/>
<stop offset="1" stop-color="#DF6A15"/>
</linearGradient>
<linearGradient id="paint1_linear_3_119" x1="16" y1="5.67743" x2="16" y2="11.871" gradientUnits="userSpaceOnUse">
<stop stop-color="#FF7A1A"/>
<stop offset="1" stop-color="#DF6A15"/>
</linearGradient>
<linearGradient id="paint2_linear_3_119" x1="7.74193" y1="10.8387" x2="7.74193" y2="14.9677" gradientUnits="userSpaceOnUse">
<stop stop-color="#FF7A1A"/>
<stop offset="1" stop-color="#DF6A15"/>
</linearGradient>
<linearGradient id="paint3_linear_3_119" x1="24.2581" y1="10.8387" x2="24.2581" y2="14.9677" gradientUnits="userSpaceOnUse">
<stop stop-color="#FF7A1A"/>
<stop offset="1" stop-color="#DF6A15"/>
</linearGradient>
<linearGradient id="paint4_linear_3_119" x1="16" y1="18.0645" x2="16" y2="24.2581" gradientUnits="userSpaceOnUse">
<stop stop-color="#FF7A1A"/>
<stop offset="1" stop-color="#DF6A15"/>
</linearGradient>
<linearGradient id="paint5_linear_3_119" x1="16" y1="0" x2="16" y2="32" gradientUnits="userSpaceOnUse">
<stop stop-color="#FF7A1A"/>
<stop offset="1" stop-color="#DF6A15"/>
</linearGradient>
</defs>
</svg>
