<svg width="36" height="36" viewBox="0 0 36 36" fill="none" xmlns="http://www.w3.org/2000/svg">
<circle cx="18" cy="18" r="18" fill="#F2F2F2"/>
<g clip-path="url(#clip0_248_1039)">
<path fill-rule="evenodd" clip-rule="evenodd" d="M6.17528 12.9626C6.17528 12.1669 6.49135 11.4039 7.05396 10.8413C7.61657 10.2787 8.37963 9.96258 9.17528 9.96258H20.4253C21.1529 9.9625 21.8558 10.2269 22.403 10.7065C22.9502 11.1861 23.3045 11.8482 23.3998 12.5696L28.0648 10.4966C28.2931 10.3948 28.5433 10.3518 28.7925 10.3713C29.0417 10.3908 29.2821 10.4724 29.4918 10.6084C29.7015 10.7445 29.8739 10.9308 29.9932 11.1505C30.1126 11.3701 30.1752 11.6161 30.1753 11.8661V23.0591C30.1751 23.3089 30.1125 23.5546 29.9932 23.7741C29.8739 23.9936 29.7017 24.1798 29.4922 24.3158C29.2827 24.4518 29.0426 24.5334 28.7936 24.5531C28.5445 24.5728 28.2946 24.53 28.0663 24.4286L23.3998 22.3556C23.3045 23.077 22.9502 23.7391 22.403 24.2187C21.8558 24.6983 21.1529 24.9627 20.4253 24.9626H9.17528C8.37963 24.9626 7.61657 24.6465 7.05396 24.0839C6.49135 23.5213 6.17528 22.7582 6.17528 21.9626V12.9626Z" fill="#252322"/>
</g>
<defs>
<clipPath id="clip0_248_1039">
<rect width="24" height="24" fill="white" transform="translate(6 6)"/>
</clipPath>
</defs>
</svg>
