<svg width="36" height="36" viewBox="0 0 36 36" fill="none" xmlns="http://www.w3.org/2000/svg">
<circle r="18" transform="matrix(-1 0 0 1 18 18)" fill="#F2F2F2"/>
<path d="M12.0726 9.14789L13.0749 8.6269C14.0149 8.13892 15.1655 8.47014 15.7634 9.40044L16.9539 11.2538C17.4719 12.0609 17.4425 13.1201 16.8816 13.8718L15.3179 15.9643C15.6151 17.005 16.151 17.9876 16.9244 18.9121C17.6621 19.8084 18.5721 20.5476 19.6006 21.0859L21.7153 19.952C22.5163 19.5233 23.4988 19.6906 24.1505 20.3672L25.6718 21.9426C26.4308 22.7296 26.5321 23.9764 25.9096 24.8604L25.2432 25.8077C24.5791 26.7506 23.4831 27.24 22.3667 27.0906C19.7294 26.7395 17.0324 24.8168 14.272 21.3233C11.5075 17.8244 10.2033 14.6756 10.361 11.8806C10.4271 10.7045 11.0776 9.66457 12.0726 9.14789Z" fill="#252322"/>
</svg>
