<svg width="24" height="24" viewBox="0 0 24 24" fill="none" xmlns="http://www.w3.org/2000/svg">
<path d="M15.54 2.63322C18.5334 1.75988 21.1067 3.25988 22 5.09322C23.2534 7.65988 22.7334 10.5466 20.46 13.6732C18.6734 16.1466 16.1134 18.6066 12.4134 21.4799C12.2962 21.5712 12.1519 21.6209 12.0034 21.6209C11.8548 21.6209 11.7105 21.5712 11.5934 21.4799C7.8867 18.5999 5.33337 16.1199 3.5467 13.6732C1.2667 10.5466 0.7467 7.65988 2.00003 5.09322C2.89337 3.25988 5.46003 1.77322 8.46003 2.63322C9.89039 3.04638 11.1384 3.93241 12 5.14655C12.8617 3.93241 14.1097 3.04638 15.54 2.63322Z" fill="#E70404"/>
</svg>
