<svg width="24" height="24" viewBox="0 0 24 24" fill="none" xmlns="http://www.w3.org/2000/svg">
<path d="M15.7361 3.3052L15.7343 3.30573C14.4561 3.67493 13.3409 4.4667 12.5709 5.55168L12 6.35604L11.4292 5.55168C10.6593 4.4669 9.54438 3.67522 8.26648 3.30593C5.58526 2.53763 3.37006 3.87964 2.6293 5.39984L2.62905 5.40037C1.52947 7.65216 1.9228 10.2582 4.11223 13.2607L15.7361 3.3052ZM15.7361 3.3052C18.4063 2.52615 20.6287 3.87703 21.3708 5.39984L21.371 5.40037M15.7361 3.3052L21.371 5.40037M21.371 5.40037C22.4707 7.65244 22.0771 10.2588 19.8939 13.2616L19.8926 13.2633M21.371 5.40037L19.8926 13.2633M19.8926 13.2633C18.1644 15.6558 15.6682 18.0643 12.0034 20.912M19.8926 13.2633L12.0034 20.912M12.0034 20.912C8.33453 18.0596 5.84251 15.63 4.11229 13.2608L12.0034 20.912Z" fill="white" stroke="#6D7274" stroke-width="1.4"/>
</svg>
