<svg width="16" height="16" viewBox="0 0 16 16" fill="none" xmlns="http://www.w3.org/2000/svg">
<path d="M8 9.33341V2.66675M5.33333 4.66675H3.33333C2.97971 4.66675 2.64057 4.80722 2.39052 5.05727C2.14048 5.30732 2 5.64646 2 6.00008V12.0001C2 12.3537 2.14048 12.6928 2.39052 12.9429C2.64057 13.1929 2.97971 13.3334 3.33333 13.3334H12.6667C13.0203 13.3334 13.3594 13.1929 13.6095 12.9429C13.8595 12.6928 14 12.3537 14 12.0001V6.00008C14 5.64646 13.8595 5.30732 13.6095 5.05727C13.3594 4.80722 13.0203 4.66675 12.6667 4.66675H10.6667H5.33333ZM10 7.33341L8 9.33341L10 7.33341ZM8 9.33341L6 7.33341L8 9.33341Z" stroke="black" stroke-width="1.2" stroke-linecap="round" stroke-linejoin="round"/>
</svg>
