<svg width="32" height="32" viewBox="0 0 32 32" fill="none" xmlns="http://www.w3.org/2000/svg">
<rect width="32" height="32" rx="16" fill="#FF7F24"/>
<path d="M25.743 16.331L16.743 6.331C16.364 5.909 15.636 5.909 15.257 6.331L6.25698 16.331C6.12744 16.4746 6.04241 16.6527 6.01223 16.8438C5.98205 17.0348 6.00802 17.2305 6.08698 17.407C6.24698 17.768 6.60498 18 6.99998 18H8.99998V25C8.99998 25.2652 9.10534 25.5196 9.29288 25.7071C9.48041 25.8946 9.73477 26 9.99998 26H13C13.2652 26 13.5196 25.8946 13.7071 25.7071C13.8946 25.5196 14 25.2652 14 25V21H18V25C18 25.2652 18.1053 25.5196 18.2929 25.7071C18.4804 25.8946 18.7348 26 19 26H22C22.2652 26 22.5196 25.8946 22.7071 25.7071C22.8946 25.5196 23 25.2652 23 25V18H25C25.1937 18.0008 25.3834 17.9453 25.546 17.8401C25.7087 17.735 25.8372 17.5848 25.916 17.4079C25.9947 17.231 26.0203 17.0349 25.9896 16.8437C25.9589 16.6525 25.8732 16.4744 25.743 16.331Z" fill="white"/>
</svg>
