<svg width="32" height="32" viewBox="0 0 32 32" fill="none" xmlns="http://www.w3.org/2000/svg">
<path d="M29.9644 15.3689L16.6311 2.03558C16.4646 1.87003 16.2393 1.7771 16.0044 1.7771C15.7696 1.7771 15.5443 1.87003 15.3778 2.03558L2.04444 15.3689C1.89882 15.539 1.82273 15.7577 1.83137 15.9814C1.84001 16.2051 1.93275 16.4173 2.09105 16.5756C2.24936 16.7339 2.46157 16.8267 2.68528 16.8353C2.909 16.844 3.12773 16.7679 3.29778 16.6223L16 3.92003L28.7022 16.6311C28.8723 16.7768 29.091 16.8529 29.3147 16.8442C29.5384 16.8356 29.7506 16.7428 29.9089 16.5845C30.0673 16.4262 30.16 16.214 30.1686 15.9903C30.1773 15.7666 30.1012 15.5479 29.9556 15.3778L29.9644 15.3689Z" fill="url(#paint0_linear_3_80)"/>
<path d="M24.8889 28.4445H20.4444V19.5556H11.5556V28.4445H7.11111V16L5.33334 17.7778V28.4445C5.33334 28.916 5.52064 29.3681 5.85403 29.7015C6.18743 30.0349 6.63962 30.2222 7.11111 30.2222H13.3333V21.3333H18.6667V30.2222H24.8889C25.3604 30.2222 25.8126 30.0349 26.146 29.7015C26.4794 29.3681 26.6667 28.916 26.6667 28.4445V17.5645L24.8889 15.7867V28.4445Z" fill="url(#paint1_linear_3_80)"/>
<defs>
<linearGradient id="paint0_linear_3_80" x1="16" y1="1.7771" x2="16" y2="16.8449" gradientUnits="userSpaceOnUse">
<stop stop-color="#FF7A1A"/>
<stop offset="1" stop-color="#DF6A15"/>
</linearGradient>
<linearGradient id="paint1_linear_3_80" x1="16" y1="15.7867" x2="16" y2="30.2222" gradientUnits="userSpaceOnUse">
<stop stop-color="#FF7A1A"/>
<stop offset="1" stop-color="#DF6A15"/>
</linearGradient>
</defs>
</svg>
