<svg width="32" height="32" viewBox="0 0 32 32" fill="none" xmlns="http://www.w3.org/2000/svg">
<path d="M16 2.66663C10.84 2.66663 6.66669 6.83996 6.66669 12C6.66669 19 16 29.3333 16 29.3333C16 29.3333 25.3334 19 25.3334 12C25.3334 6.83996 21.16 2.66663 16 2.66663ZM16 15.3333C15.116 15.3333 14.2681 14.9821 13.643 14.357C13.0179 13.7319 12.6667 12.884 12.6667 12C12.6667 11.1159 13.0179 10.2681 13.643 9.64294C14.2681 9.01782 15.116 8.66663 16 8.66663C16.8841 8.66663 17.7319 9.01782 18.357 9.64294C18.9822 10.2681 19.3334 11.1159 19.3334 12C19.3334 12.884 18.9822 13.7319 18.357 14.357C17.7319 14.9821 16.8841 15.3333 16 15.3333Z" fill="url(#paint0_linear_368_645)"/>
<defs>
<linearGradient id="paint0_linear_368_645" x1="16" y1="2.66663" x2="16" y2="29.3333" gradientUnits="userSpaceOnUse">
<stop stop-color="#FEB682"/>
<stop offset="1" stop-color="#F37418"/>
</linearGradient>
</defs>
</svg>
