<svg width="25" height="24" viewBox="0 0 25 24" fill="none" xmlns="http://www.w3.org/2000/svg">
<g clip-path="url(#clip0_541_1526)">
<path d="M12.3038 0C5.6798 0 0.315796 5.376 0.315796 12C0.315796 18.624 5.6798 24 12.3038 24C18.9398 24 24.3158 18.624 24.3158 12C24.3158 5.376 18.9398 0 12.3038 0ZM8.1158 7.2C9.1118 7.2 9.9158 8.004 9.9158 9C9.9158 9.996 9.1118 10.8 8.1158 10.8C7.1198 10.8 6.3158 9.996 6.3158 9C6.3158 8.004 7.1198 7.2 8.1158 7.2ZM18.0158 15.3C16.8758 17.268 14.7518 18.6 12.3158 18.6C9.8798 18.6 7.7558 17.268 6.6158 15.3C6.3878 14.904 6.6878 14.4 7.1438 14.4H17.4878C17.9558 14.4 18.2438 14.904 18.0158 15.3ZM16.5158 10.8C15.5198 10.8 14.7158 9.996 14.7158 9C14.7158 8.004 15.5198 7.2 16.5158 7.2C17.5118 7.2 18.3158 8.004 18.3158 9C18.3158 9.996 17.5118 10.8 16.5158 10.8Z" fill="#FFC83A"/>
</g>
<defs>
<clipPath id="clip0_541_1526">
<rect width="24" height="24" fill="white" transform="translate(0.315796)"/>
</clipPath>
</defs>
</svg>
