<svg width="32" height="32" viewBox="0 0 32 32" fill="none" xmlns="http://www.w3.org/2000/svg">
<path d="M20.3748 7.24984C21.5342 7.25331 22.6451 7.71539 23.4648 8.53517C24.2846 9.35495 24.7467 10.4658 24.7502 11.6252V20.3748C24.7467 21.5342 24.2846 22.6451 23.4648 23.4648C22.6451 24.2846 21.5342 24.7467 20.3748 24.7502H11.6252C10.4658 24.7467 9.35495 24.2846 8.53517 23.4648C7.71539 22.6451 7.25331 21.5342 7.24984 20.3748V11.6252C7.25331 10.4658 7.71539 9.35495 8.53517 8.53517C9.35495 7.71539 10.4658 7.25331 11.6252 7.24984H20.3748V7.24984ZM20.3748 5.5H11.6252C8.25625 5.5 5.5 8.25625 5.5 11.6252V20.3748C5.5 23.7437 8.25625 26.5 11.6252 26.5H20.3748C23.7437 26.5 26.5 23.7437 26.5 20.3748V11.6252C26.5 8.25625 23.7437 5.5 20.3748 5.5V5.5Z" fill="url(#paint0_linear_368_669)"/>
<path d="M21.6873 11.6251C21.4278 11.6251 21.174 11.5481 20.9582 11.4039C20.7423 11.2597 20.5741 11.0547 20.4748 10.8149C20.3754 10.5751 20.3494 10.3112 20.4001 10.0566C20.4507 9.80197 20.5757 9.5681 20.7593 9.38454C20.9428 9.20099 21.1767 9.07599 21.4313 9.02534C21.6859 8.9747 21.9498 9.00069 22.1896 9.10003C22.4294 9.19937 22.6344 9.3676 22.7786 9.58344C22.9229 9.79928 22.9998 10.053 22.9998 10.3126C23.0002 10.4851 22.9665 10.6559 22.9007 10.8153C22.8349 10.9747 22.7382 11.1196 22.6163 11.2415C22.4943 11.3635 22.3495 11.4601 22.1901 11.526C22.0306 11.5918 21.8598 11.6255 21.6873 11.6251V11.6251ZM16 12.4998C16.6923 12.4998 17.369 12.7051 17.9446 13.0897C18.5202 13.4743 18.9688 14.0209 19.2337 14.6605C19.4986 15.3001 19.568 16.0038 19.4329 16.6828C19.2978 17.3618 18.9645 17.9854 18.475 18.4749C17.9855 18.9645 17.3618 19.2978 16.6828 19.4329C16.0039 19.5679 15.3001 19.4986 14.6606 19.2337C14.021 18.9688 13.4743 18.5201 13.0897 17.9445C12.7051 17.369 12.4998 16.6922 12.4998 16C12.5008 15.072 12.8699 14.1823 13.5261 13.5261C14.1823 12.8699 15.072 12.5008 16 12.4998V12.4998ZM16 10.75C14.9617 10.75 13.9466 11.0579 13.0833 11.6348C12.2199 12.2116 11.547 13.0316 11.1496 13.9909C10.7523 14.9502 10.6483 16.0058 10.8509 17.0242C11.0535 18.0426 11.5535 18.9781 12.2877 19.7123C13.0219 20.4465 13.9574 20.9465 14.9758 21.1491C15.9942 21.3517 17.0498 21.2477 18.0091 20.8503C18.9684 20.453 19.7883 19.7801 20.3652 18.9167C20.9421 18.0534 21.25 17.0383 21.25 16C21.25 14.6076 20.6969 13.2722 19.7123 12.2877C18.7277 11.3031 17.3924 10.75 16 10.75V10.75Z" fill="url(#paint1_linear_368_669)"/>
<defs>
<linearGradient id="paint0_linear_368_669" x1="16" y1="5.5" x2="16" y2="26.5" gradientUnits="userSpaceOnUse">
<stop stop-color="#FEB682"/>
<stop offset="1" stop-color="#F37418"/>
</linearGradient>
<linearGradient id="paint1_linear_368_669" x1="16.8749" y1="9.00012" x2="16.8749" y2="21.25" gradientUnits="userSpaceOnUse">
<stop stop-color="#FEB682"/>
<stop offset="1" stop-color="#F37418"/>
</linearGradient>
</defs>
</svg>
