<svg width="24" height="24" viewBox="0 0 24 24" fill="none" xmlns="http://www.w3.org/2000/svg">
<path d="M5.09578 1.5H10.8581C11.0373 1.49987 11.2091 1.57065 11.3362 1.69688L22.8562 13.2141C23.1084 13.4675 23.25 13.8105 23.25 14.168C23.25 14.5255 23.1084 14.8685 22.8562 15.1219L17.3719 20.6063C17.1184 20.8585 16.7753 21 16.4177 21C16.0601 21 15.7171 20.8585 15.4636 20.6063L3.94687 9.09375C3.82065 8.96665 3.74987 8.79476 3.75 8.61563V2.85C3.74913 2.67283 3.78332 2.49724 3.85059 2.33333C3.91787 2.16943 4.01689 2.02045 4.14198 1.89497C4.26706 1.76949 4.41573 1.67 4.57943 1.60221C4.74312 1.53443 4.9186 1.49969 5.09578 1.5V1.5Z" stroke="black" stroke-width="1.5" stroke-linecap="round" stroke-linejoin="round"/>
<path d="M7.5 6.75C7.79667 6.75 8.08668 6.66203 8.33336 6.49721C8.58003 6.33238 8.77229 6.09812 8.88582 5.82403C8.99935 5.54994 9.02906 5.24834 8.97118 4.95737C8.9133 4.66639 8.77044 4.39912 8.56066 4.18934C8.35088 3.97956 8.08361 3.8367 7.79263 3.77882C7.50166 3.72094 7.20006 3.75065 6.92597 3.86418C6.65188 3.97771 6.41762 4.16997 6.25279 4.41665C6.08797 4.66332 6 4.95333 6 5.25C6 5.64783 6.15803 6.02936 6.43934 6.31066C6.72064 6.59197 7.10217 6.75 7.5 6.75Z" fill="black"/>
<path d="M13.2188 22.5L0.9375 10.2188C0.876441 10.1572 0.828379 10.0839 0.79617 10.0034C0.76396 9.92288 0.74826 9.83671 0.75 9.75V3.75" stroke="black" stroke-width="1.5" stroke-linecap="round" stroke-linejoin="round"/>
</svg>
