<svg width="32" height="32" viewBox="0 0 32 32" fill="none" xmlns="http://www.w3.org/2000/svg">
<path d="M17.5 15.25H14.5V12.25H13V15.25H10V16.75H13V19.75H14.5V16.75H17.5V15.25Z" fill="url(#paint0_linear_503_1035)"/>
<path d="M19.75 23.5H7C6.6023 23.4996 6.221 23.3414 5.93978 23.0602C5.65856 22.779 5.5004 22.3977 5.5 22V10C5.5004 9.6023 5.65856 9.221 5.93978 8.93978C6.221 8.65856 6.6023 8.5004 7 8.5H19.75C20.1477 8.5004 20.529 8.65856 20.8102 8.93978C21.0914 9.221 21.2496 9.6023 21.25 10V13.0428L25.3143 10.1403C25.4263 10.0602 25.5583 10.0126 25.6957 10.0026C25.833 9.99267 25.9705 10.0207 26.093 10.0837C26.2155 10.1467 26.3182 10.2422 26.39 10.3597C26.4618 10.4772 26.4999 10.6123 26.5 10.75V21.25C26.5 21.3878 26.4621 21.5229 26.3903 21.6406C26.3186 21.7582 26.2158 21.8538 26.0933 21.9169C25.9708 21.98 25.8333 22.0081 25.6959 21.9981C25.5584 21.9882 25.4264 21.9406 25.3143 21.8605L21.25 18.958V22C21.2496 22.3977 21.0914 22.779 20.8102 23.0602C20.529 23.3414 20.1477 23.4996 19.75 23.5ZM7 10V22.0007L19.75 22V17.5C19.75 17.3622 19.7879 17.2271 19.8597 17.1094C19.9314 16.9918 20.0342 16.8962 20.1567 16.8331C20.2792 16.77 20.4167 16.7419 20.5541 16.7519C20.6916 16.7618 20.8236 16.8094 20.9357 16.8895L25 19.792V12.208L20.9357 15.1105C20.8236 15.1906 20.6916 15.2382 20.5541 15.2481C20.4167 15.2581 20.2792 15.23 20.1567 15.1669C20.0342 15.1038 19.9314 15.0082 19.8597 14.8906C19.7879 14.7729 19.75 14.6378 19.75 14.5V10H7Z" fill="url(#paint1_linear_503_1035)"/>
<defs>
<linearGradient id="paint0_linear_503_1035" x1="13.75" y1="12.25" x2="13.75" y2="19.75" gradientUnits="userSpaceOnUse">
<stop stop-color="#FEB682"/>
<stop offset="1" stop-color="#F37418"/>
</linearGradient>
<linearGradient id="paint1_linear_503_1035" x1="16" y1="8.5" x2="16" y2="23.5" gradientUnits="userSpaceOnUse">
<stop stop-color="#FEB682"/>
<stop offset="1" stop-color="#F37418"/>
</linearGradient>
</defs>
</svg>
