<svg width="64" height="64" viewBox="0 0 64 64" fill="none" xmlns="http://www.w3.org/2000/svg">
<circle cx="32" cy="32" r="32" fill="#252322"/>
<path fill-rule="evenodd" clip-rule="evenodd" d="M36.86 35.2696L38.8146 39.2003C38.3099 40.3782 37.6392 41.4877 36.8153 42.4928C34.8055 44.9446 32.0087 46.6229 28.9014 47.2417C25.7942 47.8605 22.5687 47.3815 19.7747 45.8863C16.9807 44.3911 14.7909 41.9723 13.5785 39.0419C12.3661 36.1116 12.2061 32.851 13.1258 29.8158C14.0454 26.7805 15.9879 24.1584 18.6221 22.3963C21.2563 20.6341 24.4193 19.8409 27.5721 20.1518C28.2277 20.2164 28.8744 20.328 29.5077 20.4843L31.2865 24.0614C29.7402 23.2183 27.9673 22.7393 26.0827 22.7393C20.0649 22.7393 15.1865 27.6233 15.1865 33.648C15.1865 39.6728 20.0649 44.5568 26.0827 44.5568C31.55 44.5568 36.0769 40.5253 36.8592 35.2696H36.86ZM36.8594 35.2684L35.6138 32.7635H31.0619L29.9253 35.2696H36.8592L36.8594 35.2684Z" fill="white"/>
<path d="M36.813 20.1019L38.7505 15.835L51.1018 40.5852L47.0225 40.5851L44.4399 35.4036L43.1932 32.9023L36.813 20.1019Z" fill="#FF9142"/>
<path d="M43.1932 32.9023L38.4313 32.9023L39.6834 35.4036L44.4399 35.4036L43.1932 32.9023Z" fill="#FF9142"/>
</svg>
