<svg width="32" height="32" viewBox="0 0 32 32" fill="none" xmlns="http://www.w3.org/2000/svg">
<path d="M26.4734 15.5267L16.4734 5.52666C16.3484 5.40249 16.1795 5.33279 16.0034 5.33279C15.8272 5.33279 15.6583 5.40249 15.5334 5.52666L5.53335 15.5267C5.42413 15.6542 5.36706 15.8182 5.37354 15.986C5.38002 16.1538 5.44958 16.313 5.56831 16.4317C5.68704 16.5504 5.8462 16.62 6.01398 16.6265C6.18177 16.6329 6.34582 16.5759 6.47335 16.4667L16 6.93999L25.5267 16.4733C25.6542 16.5825 25.8183 16.6396 25.9861 16.6331C26.1538 16.6266 26.313 16.5571 26.4317 16.4384C26.5505 16.3196 26.62 16.1605 26.6265 15.9927C26.633 15.8249 26.5759 15.6609 26.4667 15.5333L26.4734 15.5267Z" fill="url(#paint0_linear_503_1030)"/>
<path d="M22.6667 25.3333H19.3333V18.6667H12.6667V25.3333H9.33333V16L8 17.3333V25.3333C8 25.687 8.14048 26.0261 8.39052 26.2761C8.64057 26.5262 8.97971 26.6667 9.33333 26.6667H14V20H18V26.6667H22.6667C23.0203 26.6667 23.3594 26.5262 23.6095 26.2761C23.8595 26.0261 24 25.687 24 25.3333V17.1733L22.6667 15.84V25.3333Z" fill="url(#paint1_linear_503_1030)"/>
<defs>
<linearGradient id="paint0_linear_503_1030" x1="16" y1="5.33279" x2="16" y2="16.6336" gradientUnits="userSpaceOnUse">
<stop stop-color="#FEB682"/>
<stop offset="1" stop-color="#F37418"/>
</linearGradient>
<linearGradient id="paint1_linear_503_1030" x1="16" y1="15.84" x2="16" y2="26.6667" gradientUnits="userSpaceOnUse">
<stop stop-color="#FEB682"/>
<stop offset="1" stop-color="#F37418"/>
</linearGradient>
</defs>
</svg>
