<svg width="32" height="32" viewBox="0 0 32 32" fill="none" xmlns="http://www.w3.org/2000/svg">
<path d="M18.472 4.33069C18.2728 3.8383 17.931 3.41663 17.4906 3.11972C17.0502 2.82281 16.5311 2.66418 16 2.66418C15.4688 2.66418 14.9498 2.82281 14.5093 3.11972C14.0689 3.41663 13.7272 3.8383 13.528 4.33069C11.5563 4.87293 9.81716 6.04743 8.57763 7.6738C7.3381 9.30017 6.66674 11.2885 6.66665 13.3334V19.596L4.22398 23.26C4.09001 23.4608 4.01307 23.6942 4.00135 23.9353C3.98964 24.1764 4.04361 24.4162 4.15748 24.629C4.27136 24.8419 4.44089 25.0198 4.64797 25.1439C4.85505 25.2679 5.09193 25.3334 5.33332 25.3334H11.38C11.5405 26.4442 12.0959 27.4599 12.9444 28.1946C13.7929 28.9293 14.8776 29.3337 16 29.3337C17.1223 29.3337 18.2071 28.9293 19.0556 28.1946C19.9041 27.4599 20.4594 26.4442 20.62 25.3334H26.6667C26.908 25.3334 27.1449 25.2679 27.352 25.1439C27.5591 25.0198 27.7286 24.8419 27.8425 24.629C27.9564 24.4162 28.0103 24.1764 27.9986 23.9353C27.9869 23.6942 27.91 23.4608 27.776 23.26L25.3333 19.596V13.3334C25.3333 9.03469 22.4267 5.41335 18.472 4.33069ZM17.8853 25.3334C17.7476 25.7236 17.4923 26.0614 17.1545 26.3004C16.8167 26.5394 16.4131 26.6678 15.9993 26.6678C15.5855 26.6678 15.1819 26.5394 14.8441 26.3004C14.5064 26.0614 14.251 25.7236 14.1133 25.3334H17.8867H17.8853ZM16 6.66669C17.7681 6.66669 19.4638 7.36907 20.714 8.61931C21.9643 9.86955 22.6667 11.5652 22.6667 13.3334V20C22.6666 20.2634 22.7445 20.5209 22.8907 20.74L24.1747 22.6667H7.82665L9.11065 20.74C9.2563 20.5207 9.33377 20.2633 9.33332 20V13.3334C9.33332 11.5652 10.0357 9.86955 11.2859 8.61931C12.5362 7.36907 14.2319 6.66669 16 6.66669Z" fill="#6D7274"/>
</svg>
