<svg width="16" height="16" viewBox="0 0 16 16" fill="none" xmlns="http://www.w3.org/2000/svg">
<path d="M12.6667 6.66662C12.6667 4.51728 11.2133 2.70662 9.23601 2.16528C9.1364 1.91909 8.96554 1.70825 8.74533 1.5598C8.52512 1.41134 8.26559 1.33203 8.00001 1.33203C7.73443 1.33203 7.47491 1.41134 7.25469 1.5598C7.03448 1.70825 6.86362 1.91909 6.76401 2.16528C6.39467 2.26659 6.0393 2.41326 5.70601 2.60195L6.70068 3.59595C7.20757 3.38139 7.75971 3.2957 8.30779 3.34652C8.85587 3.39734 9.38283 3.5831 9.84163 3.8872C10.3004 4.19131 10.6768 4.60429 10.9371 5.08929C11.1974 5.57428 11.3335 6.11619 11.3333 6.66662V8.22862L12.6667 9.56195V6.66662ZM2.11668 11.6226L3.33335 9.79795V6.66662C3.33335 5.96662 3.48735 5.30262 3.76401 4.70662L2.19535 3.13795C2.13167 3.07645 2.08089 3.00289 2.04595 2.92155C2.01101 2.84022 1.99262 2.75274 1.99185 2.66422C1.99108 2.5757 2.00795 2.48791 2.04147 2.40598C2.07499 2.32405 2.12449 2.24961 2.18708 2.18702C2.24968 2.12442 2.32411 2.07492 2.40604 2.0414C2.48797 2.00788 2.57576 1.99101 2.66428 1.99178C2.7528 1.99255 2.84028 2.01094 2.92162 2.04588C3.00295 2.08082 3.07652 2.13161 3.13801 2.19528L13.8047 12.8619C13.9261 12.9877 13.9933 13.1561 13.9918 13.3309C13.9903 13.5057 13.9202 13.6729 13.7966 13.7965C13.673 13.9201 13.5057 13.9902 13.3309 13.9917C13.1562 13.9933 12.9877 13.9261 12.862 13.8046L11.724 12.6666H10.31C10.2308 13.2228 9.95349 13.7317 9.52913 14.0999C9.10478 14.4681 8.56183 14.6708 8.00001 14.6708C7.4382 14.6708 6.89525 14.4681 6.47089 14.0999C6.04654 13.7317 5.76927 13.2228 5.69001 12.6666H2.67535C2.52235 12.669 2.37325 12.6183 2.25335 12.5233C2.1206 12.4186 2.03263 12.2674 2.00725 12.1003C1.98187 11.9332 2.02099 11.7626 2.11668 11.6233V11.6226ZM3.91335 11.3333H10.3913L4.79801 5.73995C4.71089 6.04113 4.66668 6.35309 4.66668 6.66662V9.99995C4.66671 10.1316 4.62774 10.2604 4.55468 10.3699L3.91335 11.3333ZM7.05735 12.6666C7.12606 12.8619 7.25371 13.0311 7.42269 13.1508C7.59166 13.2705 7.79362 13.3348 8.00068 13.3348C8.20774 13.3348 8.4097 13.2705 8.57867 13.1508C8.74765 13.0311 8.8753 12.8619 8.94401 12.6666H7.05735Z" fill="black"/>
</svg>
