<svg width="24" height="24" viewBox="0 0 24 24" fill="none" xmlns="http://www.w3.org/2000/svg">
<path d="M12 1.2C9.86392 1.2 7.77585 1.83341 5.9998 3.02013C4.22375 4.20684 2.83948 5.89357 2.02206 7.86702C1.20463 9.84046 0.990755 12.012 1.40748 14.107C1.8242 16.202 2.8528 18.1263 4.3632 19.6367C5.87361 21.1472 7.79799 22.1758 9.89298 22.5925C11.988 23.0092 14.1595 22.7953 16.1329 21.9779C18.1064 21.1605 19.7931 19.7762 20.9798 18.0002C22.1665 16.2241 22.8 14.136 22.8 12C22.8 9.13566 21.6621 6.38864 19.6367 4.36324C17.6113 2.33785 14.8643 1.2 12 1.2ZM18 13.2H5.99996V10.8H18V13.2Z" fill="black"/>
</svg>
