<svg width="32" height="32" viewBox="0 0 32 32" fill="none" xmlns="http://www.w3.org/2000/svg">
<path d="M5.356 23.3475C5.56359 23.5708 5.72267 23.8404 5.82188 24.1371C5.9211 24.4339 5.95801 24.7504 5.93 25.0642C5.78944 26.5163 5.52295 27.9513 5.134 29.3505C7.924 28.6582 9.628 27.8567 10.402 27.4366C10.841 27.1984 11.3466 27.1419 11.822 27.278C13.1849 27.6674 14.5895 27.8634 16 27.861C23.992 27.861 30 21.8451 30 15.0021C30 8.16112 23.992 2.14315 16 2.14315C8.008 2.14315 2 8.16112 2 15.0021C2 18.1482 3.234 21.0672 5.356 23.3475ZM4.37 31.7165C3.89614 31.8172 3.42074 31.9093 2.944 31.993C2.544 32.0615 2.24 31.6158 2.398 31.2171C2.57558 30.7684 2.73835 30.313 2.886 29.852L2.892 29.8305C3.388 28.2875 3.792 26.5129 3.94 24.8606C1.486 22.2245 0 18.774 0 15.0021C0 6.71664 7.164 0 16 0C24.836 0 32 6.71664 32 15.0021C32 23.2875 24.836 30.0041 16 30.0041C14.4153 30.0064 12.8372 29.7859 11.306 29.3483C10.266 29.912 8.028 30.9385 4.37 31.7165Z" fill="#6D7274"/>
<path d="M9.33333 12.6667H23M9.33333 19.3333H23" stroke="#6D7274" stroke-width="2" stroke-linecap="round"/>
</svg>
