<svg width="32" height="32" viewBox="0 0 32 32" fill="none" xmlns="http://www.w3.org/2000/svg">
<path d="M25.4133 10.6667H6.58659C6.25418 10.6667 5.93539 10.7987 5.70034 11.0338C5.4653 11.2688 5.33325 11.5876 5.33325 11.92V24.08C5.33325 24.4124 5.4653 24.7312 5.70034 24.9662C5.93539 25.2013 6.25418 25.3333 6.58659 25.3333H25.4133C25.7457 25.3333 26.0644 25.2013 26.2995 24.9662C26.5345 24.7312 26.6666 24.4124 26.6666 24.08V11.92C26.6666 11.5876 26.5345 11.2688 26.2995 11.0338C26.0644 10.7987 25.7457 10.6667 25.4133 10.6667V10.6667ZM20.1199 18.5533L13.6066 21.46C13.5052 21.5056 13.394 21.5251 13.2831 21.5167C13.1722 21.5084 13.0652 21.4724 12.9717 21.4121C12.8783 21.3518 12.8015 21.2691 12.7482 21.1715C12.6949 21.0739 12.6668 20.9645 12.6666 20.8533V15.04C12.6668 14.9288 12.6949 14.8194 12.7482 14.7219C12.8015 14.6243 12.8783 14.5416 12.9717 14.4813C13.0652 14.421 13.1722 14.385 13.2831 14.3766C13.394 14.3683 13.5052 14.3877 13.6066 14.4333L20.1199 17.3333C20.2382 17.3855 20.3388 17.4709 20.4094 17.5792C20.48 17.6875 20.5176 17.814 20.5176 17.9433C20.5176 18.0726 20.48 18.1991 20.4094 18.3074C20.3388 18.4157 20.2382 18.5012 20.1199 18.5533V18.5533Z" fill="url(#paint0_linear_503_1040)"/>
<path d="M24.0933 5.99999C24.0933 5.82318 24.023 5.65361 23.898 5.52859C23.773 5.40357 23.6034 5.33333 23.4266 5.33333H8.75993C8.58312 5.33333 8.41355 5.40357 8.28852 5.52859C8.1635 5.65361 8.09326 5.82318 8.09326 5.99999V6.66666H24.0933V5.99999Z" fill="url(#paint1_linear_503_1040)"/>
<path d="M25.4132 8.66667C25.4132 8.48986 25.343 8.32029 25.218 8.19526C25.093 8.07024 24.9234 8 24.7466 8H7.41325C7.23644 8 7.06687 8.07024 6.94184 8.19526C6.81682 8.32029 6.74658 8.48986 6.74658 8.66667V9.33333H25.4132V8.66667Z" fill="url(#paint2_linear_503_1040)"/>
<defs>
<linearGradient id="paint0_linear_503_1040" x1="15.9999" y1="10.6667" x2="15.9999" y2="25.3333" gradientUnits="userSpaceOnUse">
<stop stop-color="#FEB682"/>
<stop offset="1" stop-color="#F37418"/>
</linearGradient>
<linearGradient id="paint1_linear_503_1040" x1="16.0933" y1="5.33333" x2="16.0933" y2="6.66666" gradientUnits="userSpaceOnUse">
<stop stop-color="#FEB682"/>
<stop offset="1" stop-color="#F37418"/>
</linearGradient>
<linearGradient id="paint2_linear_503_1040" x1="16.0799" y1="8" x2="16.0799" y2="9.33333" gradientUnits="userSpaceOnUse">
<stop stop-color="#FEB682"/>
<stop offset="1" stop-color="#F37418"/>
</linearGradient>
</defs>
</svg>
