<svg width="20" height="21" viewBox="0 0 20 21" fill="none" xmlns="http://www.w3.org/2000/svg">
<path d="M4.26498 20.8602H2.03303C1.14524 20.8602 0.428589 20.1435 0.428589 19.2557V11.6329C0.428589 10.7451 1.14524 10.0284 2.03303 10.0284H4.26498C5.15277 10.0284 5.86941 10.7451 5.86941 11.6329V19.2557C5.86941 20.14 5.15277 20.8602 4.26498 20.8602Z" fill="white"/>
<path d="M19.7033 12.8701C19.7781 12.0892 19.2398 11.4189 18.516 11.2835C19.3503 11.066 19.9243 10.1924 19.6355 9.24405C19.4359 8.58088 18.8048 8.14233 18.1131 8.14233H18.081H13.011L13.9808 4.75162C14.1448 4.17402 14.2304 3.57503 14.2304 2.97248V2.50541C14.2304 1.42509 13.339 0.551562 12.248 0.583651C11.6419 0.601478 11.1677 1.1149 11.1677 1.72102V2.93683C11.1677 3.53225 10.9751 4.10985 10.615 4.58761L7.71278 8.36339C7.26711 8.94455 7.02466 9.65407 7.02466 10.3885V18.5106C7.02466 19.0311 7.44538 19.4518 7.96593 19.4518L17.7066 19.4376C18.3627 19.4376 18.8975 18.9063 18.8975 18.2467V18.1041C18.8975 17.5764 18.5516 17.1272 18.0739 16.9739C18.7834 16.9061 19.3396 16.3107 19.3396 15.5798C19.3396 14.8667 18.8084 14.282 18.1202 14.1928H18.1915C18.9581 14.1893 19.632 13.6295 19.7033 12.8701Z" fill="white"/>
</svg>
